<?xml version="1.0" encoding="utf-8"?>
<!-- Generator: Adobe Illustrator 19.0.0, SVG Export Plug-In . SVG Version: 6.00 Build 0)  -->
<svg version="1.1" id="Layer_1" xmlns="http://www.w3.org/2000/svg" xmlns:xlink="http://www.w3.org/1999/xlink" x="0px" y="0px"
	 width="226.9px" height="150.2px" viewBox="-61 75.8 226.9 150.2" style="enable-background:new -61 75.8 226.9 150.2;"
	 xml:space="preserve">
<style type="text/css">
	.st0{fill:url(#XMLID_3_);}
	.st1{fill:#ECB61C;}
	.st2{fill:#EBB04E;}
	.st3{fill:#157D63;}
</style>
<g>
	<g>
		<g id="XMLID_25_">
			<linearGradient id="XMLID_3_" gradientUnits="userSpaceOnUse" x1="-42.5564" y1="117.3882" x2="160.1265" y2="185.6386">
				<stop  offset="0" style="stop-color:#109665"/>
				<stop  offset="1" style="stop-color:#0F795C"/>
			</linearGradient>
			<path id="XMLID_26_" class="st0" d="M150.7,169l-2.4,9.8c1.6,12.6-4.1,22.4-17.7,26.8c-18.5,5.9-47,0.3-75.2-13.1
				c-16.5-7.8-32.9-18.3-47.1-30.7c-15.1-13.2-25.4-26.6-30.5-38.6C-30.1,105-25.8,90-8.1,84.4c7-2.2,15.5-2.8,24.8-1.9l16.7-1
				C10.6,75.2-11,73.8-27,78.9c-26.6,8.5-33.9,33.3-19,60.9c5.5,10.2,14.1,20.8,25.8,31.1c10.8,9.5,23.3,17.8,36.6,24.8
				c40.2,21.1,87.1,30,114.5,21.3C153.7,209.8,159.9,191.2,150.7,169z"/>
		</g>
		<g>
			<path class="st1" d="M133.4,221c-28.6,9-77.6-0.2-119.6-22.1C0,191.6-13.1,183-24.4,173.2c-12.3-10.7-21.2-21.6-27-32.2
				c-11.2-20.6-10.4-39.7,1.2-52.1c-13.2,12.3-14.6,32.2-2.8,53.7c5.8,10.6,14.7,21.5,27,32.2c11.3,9.8,24.4,18.4,38.2,25.7
				c41.9,21.9,91,31.1,119.6,22.1c7.5-2.4,13.2-5.9,17.3-10.3C145.2,216,140,218.9,133.4,221z"/>
		</g>
		<g id="XMLID_21_">
			<path class="st2" d="M-6.3,87.2l159.4-9.1c7.2-0.4,13.2,5.4,12.7,12.4l-30.2,115.2c-0.4,6.5-7.3,10.7-13.7,8.3l-53.8-40.2
				l-71.4-21.7c-4.6-1.7-6.1-4.9-7.1-10.9l-8.1-42.3C-18.1,92.6-12.9,87.6-6.3,87.2z"/>
		</g>
	</g>
</g>
<g>
	<path class="st3" d="M30.5,138c0.3,0.8,0,1.2-0.8,1.2h-1.8c-1.5,0-1.9-0.2-2.2-1.1l-1.6-4.6h-9.8l-1.7,4.6
		c-0.3,0.9-0.7,1.1-2.2,1.1H8.7c-0.8,0-1.1-0.4-0.8-1.2l8.9-23.1c0.3-0.8,0.6-1,1.5-1h1.9c0.9,0,1.2,0.2,1.5,1L30.5,138z M20,122.4
		c-0.4-1.3-0.7-2.9-0.8-3.7l0-0.6h-0.2c0,1.4-0.2,2.8-0.8,4.3l-2.7,7.5h7.3L20,122.4z"/>
	<path class="st3" d="M31.5,122.7c0-5.7,3.7-9.2,10.1-9.2c5,0,8.3,2,9.6,5.9c0.3,0.7,0,1.3-0.7,1.6l-1.9,0.7
		c-0.9,0.3-1.2,0.1-1.5-0.7c-0.8-2.2-2.6-3.3-5.4-3.3c-3.7,0-5.7,1.8-5.7,5v7.8c0,3.3,2,5.1,5.7,5.1c2.8,0,4.6-1.1,5.4-3.3
		c0.4-0.9,0.7-1.1,1.6-0.7l1.9,0.7c0.8,0.3,1,0.8,0.8,1.6c-1.4,4-4.6,6-9.7,6c-6.5,0-10.1-3.5-10.1-9.3V122.7z"/>
	<path class="st3" d="M65.6,114c5.1,0,8.4,3.1,8.4,8.2c0,5.1-3.2,8.2-8.4,8.2h-6.2v7.6c0,0.9-0.3,1.2-1.2,1.2h-2
		c-0.9,0-1.2-0.3-1.2-1.2v-22.8c0-0.9,0.4-1.2,1.2-1.2H65.6z M65.1,126.3c2.6,0,4.1-1.5,4.1-4.1c0-2.5-1.5-4.1-4.1-4.1h-5.7v8.1
		H65.1z"/>
	<path class="st3" d="M88.4,114c5,0,8,2.9,8,7.8c0,3.6-1.7,6.2-4.7,7.2c0.4,0.4,0.8,0.9,1.1,1.5l3.9,7.5c0.4,0.8,0.2,1.2-0.6,1.2
		h-2.1c-1.6,0-2-0.2-2.4-1.1l-3-6c-1-2-1.8-2.5-4.2-2.5h-2.6v8.4c0,0.9-0.3,1.2-1.2,1.2h-2c-0.9,0-1.2-0.3-1.2-1.2v-22.8
		c0-0.9,0.4-1.2,1.2-1.2H88.4z M91.7,121.8c0-1.2-0.3-2.1-1-2.7c-0.6-0.6-1.6-0.9-2.8-0.9h-6.1v7.3h6.1c1.2,0,2.1-0.3,2.8-1
		C91.4,123.9,91.7,123,91.7,121.8z"/>
	<path class="st3" d="M121.4,138c0.3,0.8,0,1.2-0.8,1.2h-1.8c-1.5,0-1.9-0.2-2.2-1.1l-1.6-4.6h-9.8l-1.7,4.6
		c-0.3,0.9-0.7,1.1-2.2,1.1h-1.6c-0.8,0-1.1-0.4-0.8-1.2l8.9-23.1c0.3-0.8,0.6-1,1.5-1h1.9c0.9,0,1.2,0.2,1.5,1L121.4,138z
		 M110.9,122.4c-0.4-1.3-0.7-2.9-0.8-3.7l0-0.6h-0.2c0,1.4-0.2,2.8-0.8,4.3l-2.7,7.5h7.3L110.9,122.4z"/>
	<path class="st3" d="M141.5,125.4c1,0,1.2,0.3,1.2,1.2v4.7c0,2.5-0.9,4.5-2.7,6c-1.8,1.6-4.3,2.3-7.4,2.3c-6.5,0-10.1-3.5-10.1-9.3
		v-7.8c0-5.7,3.7-9.2,10.1-9.2c5,0,8.3,2,9.6,5.9c0.3,0.7,0,1.3-0.7,1.6l-1.9,0.7c-0.9,0.3-1.2,0.1-1.5-0.7
		c-0.8-2.2-2.6-3.3-5.4-3.3c-3.7,0-5.7,1.8-5.7,5v7.8c0,3.3,2,5.1,5.7,5.1c3.5,0,5.7-1.7,5.7-4.2v-1.8H133c-0.9,0-1.2-0.4-1.2-1.2
		v-1.7c0-0.9,0.3-1.2,1.2-1.2H141.5z"/>
</g>
</svg>
