<svg id="Camada_2" xmlns="http://www.w3.org/2000/svg" viewBox="0 0 179.46 116.77">
  <defs>
    <style>
      .cls-1 {
        fill: #000831;
      }
    </style>
  </defs>
  <g id="Camada_1-2" data-name="Camada_1">
    <g>
      <path class="cls-1" d="M122.17.17c-.1,0-.21-.01-.31-.02-1.42-.1-2.85-.15-4.29-.15h-55.72c-16.45,0-31.97,6.45-43.68,18.17C6.45,29.89,0,45.4,0,61.85s6.45,31.97,18.17,43.68c2.01,2.01,4.23,3.89,6.52,5.61,1.17.88,2.37,1.72,3.59,2.54,1.16.78,2.34,1.69,3.62,2.25.41.18.91.36,1.48.52.7.18,1.52.32,2.42.32.7,0,1.45-.08,2.24-.28,3.41-.87,5.33-3.78,7.23-6.48,1.01-1.44,2.01-2.87,3.02-4.31,2.49-3.56,4.98-7.12,7.47-10.67,1.6-2.28,3.19-4.56,4.79-6.84l.15-.22.15-.22c-.11,0-.21,0-.32-.01-13.65-.72-24.54-12.05-24.54-25.88s11.63-25.92,25.92-25.92h22.49c.45.03.94.05,1.46.05.46,0,.95-.02,1.46-.05.62-.04,1.27-.11,1.95-.22,1.92-.3,4.05-.91,6.25-2,2.46-1.23,4.37-2.77,5.83-4.27.72-.74,1.32-1.47,1.83-2.14.25-.34.48-.66.68-.97L121.99.43l.18-.26Z"/>
      <path class="cls-1" d="M57.29,116.6c.1,0,.21.01.31.02,1.42.1,2.85.15,4.29.15h55.72c16.45,0,31.97-6.45,43.68-18.17,11.72-11.72,18.17-27.23,18.17-43.68s-6.45-31.97-18.17-43.68c-2.56-2.56-5.33-4.9-8.29-6.98-.87-.61-1.78-1.17-2.68-1.74-1.37-.86-2.65-1.78-4.25-2.21-.7-.18-1.52-.32-2.42-.32-.7,0-1.45.08-2.23.28-3.01.77-4.69,2.87-6.38,5.28l-1.48,2.12c-1.43,2.04-2.86,4.09-4.29,6.13-1.62,2.31-3.24,4.63-4.86,6.94l-3.98,5.69-1.66,2.37-.15.22c.11,0,.21,0,.32.01,13.65.72,24.54,12.05,24.54,25.88s-11.63,25.92-25.92,25.92h-22.49c-.45-.03-.94-.05-1.46-.05-.46,0-.95.02-1.46.05-.62.04-1.27.11-1.95.22-1.92.3-4.05.91-6.25,2-2.46,1.23-4.37,2.77-5.83,4.27-.72.74-1.32,1.47-1.83,2.14-.25.34-.48.66-.68.97l-18.14,25.9-.18.26Z"/>
    </g>
  </g>
</svg>