<svg width="24" height="22" viewBox="0 0 24 22" fill="none" xmlns="http://www.w3.org/2000/svg">
<path d="M16.7283 12.2047C16.7082 12.211 16.6875 12.2167 16.6669 12.2229C16.3299 12.3226 15.9736 12.3773 15.6048 12.3773H13.9688C13.7348 12.3773 13.5064 12.3992 13.2844 12.4399C12.8929 12.5108 12.5228 12.6413 12.1829 12.8226C12.1628 12.8333 12.1427 12.8446 12.1232 12.8552C11.5474 13.1758 11.0625 13.6406 10.7187 14.2008C10.6465 14.3192 10.5807 14.4417 10.5211 14.5684C10.4446 14.7303 10.3788 14.899 10.3254 15.0728C10.3191 15.0947 10.3135 15.1167 10.3072 15.138C10.2953 15.1788 10.284 15.2189 10.2739 15.2597L9.94524 16.1775C9.89711 16.3118 9.86382 16.4523 9.80249 16.5816C9.7727 16.6444 9.72807 16.7012 9.67994 16.7508C9.63603 16.796 9.58646 16.8348 9.53245 16.8675C9.38217 16.9583 9.1884 16.978 9.01596 16.9779H8.39579C6.32944 16.9779 4.64888 15.2973 4.64888 13.231C4.64888 11.5567 5.75358 10.1353 7.27171 9.65724C7.29242 9.65034 7.31242 9.64467 7.33314 9.639C7.66997 9.53933 8.02628 9.48471 8.39579 9.48471H9.73003C9.96349 9.48471 10.1918 9.46213 10.4139 9.42204C10.9188 9.32979 11.3886 9.13849 11.8033 8.86814C11.8234 8.8557 11.8435 8.84292 11.8636 8.8298C12.3291 8.51368 12.721 8.09717 13.0084 7.61161C13.0919 7.47102 13.1663 7.32508 13.2317 7.17377C13.2919 7.0338 13.3434 6.88899 13.3867 6.74087L13.4368 6.60101L13.4588 6.53896L13.7737 5.65822L13.8615 5.4123L13.896 5.31634C13.8997 5.3081 13.9037 5.29992 13.908 5.29181C13.9248 5.2567 13.9445 5.22344 13.9669 5.19204C14.0241 5.11257 14.0944 5.04434 14.1778 4.99249C14.2306 4.95962 14.2867 4.93065 14.3464 4.91303C14.3914 4.89983 14.4401 4.8986 14.4866 4.89849H15.8786C15.8937 4.89849 15.9096 4.89726 15.9248 4.89849C17.8411 5.06165 19.351 6.67254 19.351 8.63036C19.351 10.3052 18.247 11.7261 16.7283 12.2047ZM23.1237 4.89849C23.113 4.87778 23.103 4.85644 23.0923 4.83583C21.7198 2.13838 18.9314 0.277136 15.7127 0.236424C15.6901 0.236424 15.6681 0.235806 15.6462 0.235806L15.6236 0.297853L14.2906 4.0259L14.2253 4.20844L14.1861 4.31841C14.1677 4.36995 14.1487 4.42138 14.1308 4.47312C14.118 4.51043 14.0893 4.54404 14.0642 4.57403C14.0387 4.60474 14.0108 4.63316 13.9806 4.65927C13.92 4.71173 13.8507 4.75409 13.7763 4.78398C13.6995 4.8149 13.6173 4.83222 13.5347 4.83531C13.5257 4.83559 13.5168 4.83573 13.5078 4.83573H8.11729C8.11606 4.83768 8.11544 4.83954 8.1141 4.84078C7.86323 4.84954 7.61483 4.8684 7.37014 4.89849C6.90663 4.95498 6.45426 5.05032 6.01703 5.17957C5.99508 5.18585 5.97312 5.19204 5.95179 5.19894C2.51048 6.24779 0 9.45152 0 13.231C0 17.7282 3.55365 21.4098 8.00062 21.6168C8.02206 21.6179 8.0438 21.6187 8.06586 21.6193L8.08843 21.5578L9.42773 17.8115L9.49988 17.6096C9.52956 17.5266 9.55327 17.4369 9.59604 17.3578C9.64335 17.2702 9.72024 17.2029 9.80136 17.147C9.87629 17.0955 9.96122 17.0534 10.0524 17.0421C10.0963 17.0367 10.141 17.0406 10.1852 17.0406H15.8758C15.8789 17.0337 15.8827 17.0275 15.8858 17.0206C16.0936 17.0136 16.2991 16.9993 16.5025 16.9779C16.9002 16.9352 17.2903 16.8649 17.6692 16.7684L17.7357 16.7515C21.3365 15.8061 24 12.5234 24 8.63036C24 7.29044 23.6839 6.0233 23.1237 4.89849Z" fill="#000831"/>
</svg>
