<?xml version="1.0" encoding="UTF-8"?>
<svg id="Camada_2" xmlns="http://www.w3.org/2000/svg" viewBox="0 0 24 30.87">
  <defs>
    <style>
      .cls-1 {
        fill: #000831;
      }
    </style>
  </defs>
  <g id="Camada_1-2" data-name="Camada_1">
    <g id="id2:id2">
      <g id="id2:surface26791">
        <path class="cls-1" d="M12.04,12.85c-2.88,0-5.22,2.34-5.22,5.22,0,2.4,1.6,4.42,3.78,5.03-.03-.06-.03-.13-.06-.19-.06-.58-.06-1.67.06-2.24.13-.58.7-1.09.64-1.38-.06-.29-.7-1.15-.7-1.15.54-.32,1.28-.9,1.47-1.06v-.03l.03.03.03-.03v.03c.19.16.9.74,1.47,1.06,0,0-.64.87-.7,1.15-.06.29.51.8.64,1.38s.13,1.67.06,2.24c0,.06-.03.13-.06.19,2.18-.64,3.78-2.63,3.78-5.03,0-2.88-2.34-5.22-5.22-5.22Z"/>
        <path class="cls-1" d="M10.83,8.14c.32.26.03.87.03.87,0,0,.38-.22.77-.29,0,0,.1-.45-.1-.74s-.54-.38-.61-.7c-.06-.32-.42-.32-.48-.06,0,.22.06.67.38.93Z"/>
        <path class="cls-1" d="M13.13,9.01s-.29-.61.03-.87c.32-.26.38-.7.35-.96s-.38-.26-.48.06-.42.42-.61.7c-.19.29-.1.74-.1.74.42.1.8.32.8.32Z"/>
        <path class="cls-1" d="M9.32,9.46c0,.38.32.61.32.61.38-.61.77-.9.77-.9l-.13-.16c-.16-.22-.32-.19-.58-.13-.19.03-.38.38-.38.58Z"/>
        <path class="cls-1" d="M9.07,8.98s.1-.51.64-.54c0,0-.03-.29-.22-.67-.19-.38-.87-1.44-.87-1.44,0,0-.16.48-.8.54,0,0,.48,1.38,1.25,2.11Z"/>
        <path class="cls-1" d="M3.23.68c.7.26,1.95,1.76,2.08,1.95.13.16.26.51.29.61,0,.13.03.22.13.35.38.48,1.47,2.05,1.67,2.53l.19.48s.54-.06.87-.54l-.32-.32c-.19-.19-.99-1.47-1.54-2.4-.19-.32-.38-.45-.54-.45-.19-.1-.32-.32-.32-.32,0,0-1.19-1.35-1.57-1.63-.38-.29-.61-.35-.61-.35,0,0-.87-.61-.93-.42-.13.13.61.51.61.51Z"/>
        <path class="cls-1" d="M14.32,10.1s.32-.22.32-.61c0-.22-.19-.54-.38-.58-.26-.06-.42-.06-.58.13l-.13.16s.38.26.77.9Z"/>
        <path class="cls-1" d="M14.87,8.98c.8-.7,1.25-2.08,1.25-2.08-.64-.06-.83-.58-.83-.58,0,0-.67,1.06-.87,1.44-.19.38-.22.67-.22.67.58.03.67.54.67.54Z"/>
        <path class="cls-1" d="M16.4,6.54l.19-.48c.19-.48,1.25-2.05,1.67-2.53.1-.1.13-.22.13-.35.03-.1.16-.45.29-.61.13-.19,1.38-1.7,2.08-1.95,0,0,.77-.38.67-.58-.06-.19-.93.42-.93.42,0,0-.22.06-.61.35s-1.57,1.63-1.57,1.63c0,0-.13.19-.32.32-.16,0-.35.13-.54.45-.54.93-1.38,2.24-1.54,2.4l-.32.32c.26.55.8.61.8.61Z"/>
        <path class="cls-1" d="M9.45,10.51s-1.57-1.44-2.28-1.6c0,0-.03.54-.51.87,0,0,1.28,1.09,2.53,1.51-.03.03.06-.32.26-.77Z"/>
        <path class="cls-1" d="M3.59,7.95c.03.1.13.19.26.26.58.22,1.73.7,2.11,1.06l.38.32s.45-.32.51-.87c0,0-.19-.06-.45-.13-.26-.06-1.06-.42-1.95-.99-.29-.19-.54-.22-.67-.16-.22,0-.42-.13-.42-.13,0,0-1.12-.61-1.63-.7-.48-.06-.7-.03-.7-.03,0,0-1.06-.16-1.02.03.03.19.87.19.87.19.77-.1,2.02.67,2.21.74.16.1.45.35.51.42Z"/>
        <path class="cls-1" d="M16.79,8.85c-.7.16-2.28,1.6-2.28,1.6.19.42.29.8.29.8,1.25-.42,2.53-1.51,2.53-1.51-.51-.35-.55-.9-.55-.9Z"/>
        <path class="cls-1" d="M22.97,6.48s-.22-.03-.7.03c-.48.06-1.63.7-1.63.7,0,0-.22.13-.42.13-.16-.06-.38-.06-.67.16-.9.58-1.73.93-1.95.99-.26.06-.45.13-.45.13.06.58.51.87.51.87l.38-.32c.38-.32,1.54-.83,2.11-1.06.13-.06.22-.16.26-.26.06-.06.35-.32.51-.38.22-.1,1.47-.87,2.21-.74,0,0,.87,0,.87-.19,0-.19-1.03-.07-1.03-.07Z"/>
        <path class="cls-1" d="M5.86,12.6s-.13.16-.26.38-.74.87-1.57,1.57c-.29.22-.35.45-.35.61-.06.22-.26.38-.26.38,0,0-.93.9-1.15,1.31-.22.45-.26.67-.26.67,0,0-.45.96-.29.99.19.03.45-.77.45-.77.13-.74,1.25-1.7,1.41-1.89.13-.16.45-.32.54-.38.13,0,.22-.06.32-.16.38-.48,1.22-1.44,1.67-1.7l.45-.26s-.19-.51-.7-.77Z"/>
        <path class="cls-1" d="M6.18,12.37s.61.35.64.87c0,0,1.41-.1,2.31-.61,0,0-.1-.51-.03-.83-.03,0-1.02-.06-2.92.58Z"/>
        <path class="cls-1" d="M21.69,16.83c-.22-.45-1.15-1.31-1.15-1.31,0,0-.19-.16-.26-.38.03-.16-.06-.38-.35-.61-.83-.67-1.41-1.35-1.57-1.57-.16-.19-.26-.38-.26-.38-.51.26-.67.77-.67.77l.45.26c.45.26,1.25,1.22,1.67,1.7.1.1.19.16.32.16.06.03.42.22.54.38.16.16,1.28,1.12,1.41,1.89,0,0,.26.8.45.77s-.29-.99-.29-.99c0,0-.06-.25-.29-.67Z"/>
        <path class="cls-1" d="M17.17,13.21c.03-.51.64-.87.64-.87-1.92-.64-2.92-.58-2.92-.58.06.32-.03.83-.03.83.9.51,2.31.61,2.31.61Z"/>
        <path class="cls-1" d="M4.07,20.8s.03.19.03.45c.03.26-.29,3.52-.48,4.58-.06.35,0,.58.13.67.06.19.03.45.03.45,0,0,.06,1.79.16,2.28.13.48.22.67.22.67,0,0,.26,1.02.45.93.16-.1-.16-.9-.16-.9-.38-.67-.35-2.6-.35-2.82,0-.19.13-.54.16-.64.06-.1.13-.19.13-.35,0-.61.29-4.26.45-4.71l.16-.48s-.38-.29-.93-.13Z"/>
        <path class="cls-1" d="M4.45,19.52l-.22.32c-.1.13-.22.19-.22.35v.19s.74-.13,1.12.13c0,0,.1-.16.13-.32.06-.35,1.06-1.44,1.15-1.6,0,0-.1-.54.13-1.63,0,.03-1.44,1.54-2.08,2.56Z"/>
        <path class="cls-1" d="M19.93,21.25c.03-.26.03-.45.03-.45-.54-.16-1.02.16-1.02.16l.16.48c.16.48.45,4.1.45,4.71,0,.13.06.26.13.35.03.1.16.45.16.64,0,.22.03,2.18-.35,2.82,0,0-.32.8-.16.9.16.1.45-.93.45-.93,0,0,.13-.19.22-.67.13-.48.16-2.28.16-2.28,0,0-.03-.26.03-.45.13-.13.19-.32.13-.67-.1-1.12-.42-4.36-.39-4.62Z"/>
        <path class="cls-1" d="M20.02,20.38v-.19c0-.16-.13-.22-.22-.35l-.22-.32c-.61-1.06-2.08-2.56-2.08-2.56.22,1.09.13,1.63.13,1.63.1.16,1.09,1.25,1.15,1.6.03.13.13.32.13.32.35-.26,1.12-.13,1.12-.13Z"/>
        <path class="cls-1" d="M9.61,12.05c0,.29.06.58.16.83.7-.32,1.47-.48,2.31-.48s1.57.16,2.24.48c.1-.26.13-.51.13-.8,0-1.35-1.12-2.92-2.47-2.92-1.31-.03-2.37,1.54-2.37,2.88Z"/>
      </g>
    </g>
  </g>
</svg>