<?xml version="1.0" encoding="UTF-8"?>
<svg id="Camada_2" xmlns="http://www.w3.org/2000/svg" viewBox="0 0 24 25.9">
  <g id="Camada_1-2" data-name="Camada_1">
    <g id="id16:id16">
      <g id="id16:surface26796">
        <path d="M11.77,11.4l.08.03h.16l.08-.03c.84-.11,2.64-.62,2.8-.92.19-.32-.11-1.53-.94-2.34-.43-.4-1.35-.94-2.15-.94s-1.56.54-1.97.94c-.78.84-1.13,1.99-.94,2.34.24.3,2.05.81,2.88.92Z"/>
        <path d="M11.56,20.83c.81-.27,1-1.67,1.08-2.1.57-3.07-.54-6.76-.54-6.76-1.27,0-3.29-.84-3.29-.84,0,0-.73,3.15-.32,5.17s2.26,4.79,3.07,4.52Z"/>
        <path d="M15.65,16.06c.16-1.67-.59-4.82-.59-4.82-.19.11-2.53.67-2.53.67.3.92.51,2.85.59,3.64.46,4.34-.97,5.31-.97,5.31.19,0,.38-.05.54-.14,1.8-1.02,2.8-3.07,2.96-4.66Z"/>
        <path d="M11.91,21.45s-1.48.59-3.42-3.93c0,0-.32.73-.32,1.27s1.1,3.04,1.1,3.04l.4.27s.19.19.59.84l.54.19s.4.46,1.13,1l.24-.03c.73-.54,1.27-1,1.27-1l.4-.19c.4-.67.67-.94.67-.94l.4-.27s1-2.4,1-2.94-.19-1.08-.19-1.08c0,0-1.16,3.15-3.83,3.77Z"/>
        <path d="M7.89,19.97c-.59-1.62-.05-2.26-.05-2.26,0,0-.32-.19-1.48-.32-.73-.08-.94.89-1,1.94-.22,0-.57.05-.73.05l-.46.05,1.16.22v.54c-.19.08-.51.3-.67.4l-.38.24,1.08-.27v2.13l-1.56,2.99c-.03.05-.03.11.03.16.05.08.22.08.27,0l1.43-2.34.32-.73.19-1.78.86.46-.32-.32c-.11-.11-.32-.35-.48-.48l.05-.59.89.48-.32-.32c-.14-.14-.38-.4-.54-.54l.14-1.21,1.59,1.51Z"/>
        <path d="M18.61,22.58v-2.13l1.08.27-.38-.24c-.16-.11-.51-.3-.67-.4v-.54l1.16-.22-.46-.05c-.16-.03-.51-.05-.73-.05-.05-1.05-.27-2.02-1-1.94-1.13.14-1.48.32-1.48.32,0,0,.54.67-.05,2.26l1.62-1.53.14,1.21c-.16.14-.43.4-.54.54l-.32.32.89-.48.05.59c-.16.14-.38.38-.48.48l-.32.35.86-.46.19,1.78.32.73,1.43,2.34c.05.11.19.11.27,0,.03-.05.05-.11.03-.16l-1.59-2.99Z"/>
        <path d="M5.06,13.61c-.11-.08-.24-.16-.35-.22l-.38-.22.54.57c-.43.32-1.4,1.19-1.4,1.19l-1.43.92c-.05.05-.08.14-.05.19.03.08.14.14.22.08l1.43-.81c.19-.05.92-.48,1.62-.92l.46.67-.14-.43c-.03-.11-.08-.24-.14-.38.24-.14.46-.3.67-.4l.46.67-.14-.43c-.03-.11-.08-.24-.14-.38.3-.19.48-.3.48-.3l1.1,1.27.14-1.48s-.59-.48-.94-.73c-.35-.19-1.56.81-2.02,1.13Z"/>
        <path d="M6.55,9.27l.32-.46.27.08c.19.16,1.45.7,1.45.7l.24-.59c-.35-.24-.86-.57-.86-.57l-.7-.16c-.05,0-.11-.03-.16-.03-.03,0-.05,0-.08-.03.03-.11.03-.22.05-.3l.05-.3-.27.57c-.27-.05-.48-.08-.62-.08-.16,0-.32-.08-.43-.22l-.81-.92c-.08-.08-.22-.08-.3,0-.05.08-.05.19,0,.24l.89,1.13c.08.11.19.19.32.22l.84.22c-.03.05-.05.11-.05.16l-.16.32Z"/>
        <path d="M21.82,15.66l-1.43-.92s-.97-.86-1.4-1.19l.54-.57-.38.21c-.11.05-.22.14-.35.22-.14-.11-.35-.27-.59-.43l.27-.86-.24.38c-.05.11-.16.22-.24.35-.48-.35-1.02-.65-1.21-.51-.35.24-.94.7-.94.7l.19,1.48,1.05-1.24s.19.14.48.3c-.05.14-.08.27-.14.38l-.14.43.46-.67c.19.14.43.27.67.4-.05.14-.08.27-.14.38l-.11.4.46-.67c.7.43,1.43.86,1.62.92l1.43.81c.08.05.19,0,.22-.08,0-.08,0-.16-.08-.22Z"/>
        <path d="M18.34,8.28l.89-1.13c.05-.08.05-.19,0-.24-.08-.08-.22-.11-.3,0l-.81.92c-.11.14-.27.19-.43.22-.14,0-.35.03-.62.08l-.27-.57.05.3c0,.08.03.19.05.3-.03,0-.05,0-.08.03-.05.03-.11.03-.16.03l-.7.16s-.51.3-.86.57l.24.59s1.27-.57,1.45-.7l.27-.08.32.46-.11-.35c-.03-.05-.03-.11-.05-.16l.84-.22c.08,0,.19-.08.27-.19Z"/>
        <path d="M.05,14.07c-.05.73-.05,1.16-.05,1.16,0-.27.03-.67.05-1.16Z"/>
        <path d="M4.98.49c1.4.05,3.93,1.62,5.31,6.19-.16.19-.3.38-.38.57l-.16.51s1.62-1.91,4.23-.14c0,0-.14-.84-.57-1.13-.03-.03-.08-.05-.11-.05C14.71,1.89,17.21.36,18.61.31c4.23-.24,5.23,13.28,5.36,15.25-.16-2.94-.84-15.25-4.93-15.54-4.01-.27-5.98,5.6-6.17,6.22-.48-.19-1.08-.22-1.78-.05-.14.03-.27.08-.38.16C10.42,5.42,8.46-.07,4.58.2.84.47.27,10.16.08,14.04.27,10.57,1.21.36,4.98.49Z"/>
        <path d="M23.97,15.55c0,.08,0,.16.03.24,0,0-.03-.08-.03-.24Z"/>
        <path d="M10.21,23.28s-1.19,1.45-.94,1.67c.22.22.84-.38,1-.73.16-.35.4-.65.4-.65l-.08-.14-.38-.16Z"/>
        <path d="M13.5,23.39l-.08.14s.27.32.4.65c.16.35.75.94,1,.73.24-.22-.94-1.64-.94-1.64l-.38.13Z"/>
      </g>
    </g>
  </g>
</svg>