<?xml version="1.0" encoding="UTF-8"?>
<svg id="Camada_2" xmlns="http://www.w3.org/2000/svg" viewBox="0 0 24 18.59">
  <defs>
    <style>
      .cls-1 {
        fill: #000831;
      }
    </style>
  </defs>
  <g id="Camada_1-2" data-name="Camada_1">
    <g>
      <path class="cls-1" d="M8.76,5.99c.06.37.67,3.38,3.24,3.45,2.53-.07,3.17-3.09,3.24-3.46-.2-.56-.36-.98-.45-1.18-.33-.75-.91-1.19-1.55-1.19h-2.33s0,0,0,0c0,0,0,0,0,0h-.14c-.64,0-1.22.45-1.55,1.19-.09.2-.26.62-.45,1.18Z"/>
      <path class="cls-1" d="M12.99,3.19c.05-.1.07-.21.07-.35,0-.54-.47-.98-1.04-.98s-1.04.44-1.04.98c0,.12.02.24.07.35h1.95Z"/>
      <path class="cls-1" d="M12.01,9.87s0,0,0,0,0,0,0,0c-2.21-.06-3.14-2.06-3.48-3.15-.68,2.09-1.49,5.26-.99,7.05.73,2.61,4.09,3.85,4.48,3.85s3.74-1.23,4.48-3.85c.5-1.78-.31-4.96-.99-7.05-.34,1.09-1.27,3.08-3.48,3.15Z"/>
      <g>
        <path class="cls-1" d="M14.6,3.79c.23-.26.73-.8,1.03-1.08.22-.16,1.79.02,2.72.12.98.11,1.83.2,2.23.14,1.1-.16,3.13-2.37,3.36-2.62.08-.09.07-.22-.01-.3-.09-.08-.22-.07-.3.01-.59.65-2.3,2.37-3.11,2.49-.35.05-1.25-.05-2.13-.15-1.86-.2-2.76-.27-3.05-.02-.33.3-.85.87-1.08,1.12l.33.27Z"/>
        <path class="cls-1" d="M15.57,5.64c.88.18,3.05.59,4.17.66.05,0,.1,0,.16,0,1.39,0,3.17-1.09,3.25-1.14.1-.06.13-.19.07-.29-.06-.1-.19-.13-.29-.07-.02.01-1.87,1.16-3.15,1.07-1.24-.08-3.85-.59-4.37-.71l.18.47Z"/>
        <path class="cls-1" d="M16.38,8.23c.94.53,2.99,1.71,3.9,2.52,1.11.98,1.95,2.52,1.95,2.54.04.07.11.11.19.11.03,0,.07,0,.1-.03.1-.06.14-.18.09-.29-.04-.07-.88-1.62-2.05-2.65-1.04-.92-3.43-2.27-4.22-2.71-.05-.03-.09-.05-.13-.07l.16.58Z"/>
        <path class="cls-1" d="M17.03,11.78c.82.62,2.44,1.93,2.91,2.75.6,1.03.32,3.8.31,3.83-.01.12.07.22.19.23,0,0,.01,0,.02,0,.11,0,.2-.08.21-.19.01-.12.3-2.93-.37-4.08-.63-1.09-2.89-2.78-3.33-3.11l.05.56Z"/>
        <path class="cls-1" d="M7.02,11.21c-.44.32-2.7,2-3.33,3.11-.67,1.15-.38,3.96-.37,4.08.01.11.1.19.21.19,0,0,.01,0,.02,0,.12-.01.2-.12.19-.23,0-.03-.28-2.79.31-3.83.48-.83,2.12-2.15,2.91-2.75l.05-.57Z"/>
        <path class="cls-1" d="M7.78,7.65s-.08.04-.13.07c-.79.44-3.18,1.79-4.22,2.71-1.16,1.03-2.01,2.59-2.05,2.65-.06.1-.02.23.09.29.03.02.07.03.1.03.08,0,.15-.04.19-.11,0-.02.85-1.55,1.95-2.54.91-.81,2.96-1.99,3.9-2.52l.16-.58Z"/>
        <path class="cls-1" d="M8.61,5.17c-.52.12-3.12.63-4.37.71-1.28.08-3.13-1.06-3.15-1.07-.1-.06-.23-.03-.29.07-.06.1-.03.23.07.29.08.05,1.85,1.14,3.25,1.14.05,0,.1,0,.16,0,1.12-.07,3.28-.48,4.17-.66l.18-.47Z"/>
        <path class="cls-1" d="M9.75,3.51c-.24-.26-.77-.82-1.1-1.11-.29-.26-1.19-.19-3.05.02-.87.1-1.78.2-2.13.15C2.67,2.44.96.72.37.07.29-.02.16-.02.07.05s-.09.21-.01.3c.23.25,2.26,2.46,3.36,2.62.4.06,1.25-.04,2.23-.14.93-.1,2.5-.27,2.72-.12.31.27.81.8,1.05,1.07l.33-.27Z"/>
      </g>
    </g>
  </g>
</svg>