<?xml version="1.0" encoding="UTF-8"?>
<svg id="Camada_2" xmlns="http://www.w3.org/2000/svg" viewBox="0 0 24 33.24">
  <defs>
    <style>
      .cls-1 {
        fill: #000831;
      }
    </style>
  </defs>
  <g id="Camada_1-2" data-name="Camada_1">
    <g id="id23:id23">
      <g id="id23:surface26886">
        <path class="cls-1" d="M17.45,7.44c.35-.42.07-.97-.07-2.11-.14-1.11-.76-1.32-.76-1.32l-1.7-.42s-1.32-1.25-2.98-1.25-2.98,1.25-2.98,1.25l-1.7.42s-.62.21-.76,1.32c-.14,1.11-.42,1.7-.07,2.11.35.42.48.76,1.25.42s3.36-.62,4.19-.62,3.53.24,4.29.59c.8.38.94.03,1.28-.38ZM11.57,2.67c.83-.21,1.32.52,1.35.73.07.21-.59,2.11-1,2.11s-1-1.7-1.11-2.04c-.07-.38.76-.8.76-.8ZM13.16,6.58c-.35-.07-.66-.1-1-.1h-.42c-.42,0-.83.03-1.25.1-1.25.24-4.26.55-3.22-2.53-.17,1.11.21,1.7,1.04,2.01.42.14.83.17,1.28.1.83-.14,2.63-.35,4.67,0,.38.07.76.03,1.14-.07.94-.28,1.46-.87,1.25-2.08,1.04,3.19-2.32,2.77-3.5,2.56Z"/>
        <path class="cls-1" d="M17.66,9.94c.28-.48-.38-1.32-.69-1.66-.07-.07-.14-.1-.21-.07-.07,0-.14.03-.21.1-.07.1-1.87,2.77-2.11,3.77-.21.9-.55,1.9-.83,2.91-.66,2.04-1.32,4.16-1.18,5.47.1.94.31,3.43.48,5.85.17,2.36.35,4.61.45,5.26.14,1.21.87,1.52,1.25,1.52h.03c2.98-.42,3.84-11.08,3.84-12.05,0-.55-.17-2.36-.35-4.43-.24-2.63-.59-6.23-.49-6.68ZM16.24,30.51c-.28.24-.73.55-1.04.66,1-.83,1.59-4.23,1.77-5.4.14-.03.35-.21.59-.52-.31,1.84-.76,3.84-1.32,5.26ZM13.68,16.52c.07.03.14.07.24.07.07,0,.14,0,.21-.03.14-.03.28-.14.42-.31-.03.55-.07,1.59-.07,1.9l-.62,1.84c-.07-1.14-.17-2.22-.24-3.25.03-.03.07-.1.07-.21ZM17.21,9.7s-.03,0,0,0v-.03.03ZM17.14,10.91s0,.03,0,0c-.17,1.63-.76,5.99-1.39,6.61-.38.28-.8.52-.97.59,0-.38.03-1.59.07-2.18v-.07c1-1.46,1.94-4.67,2.32-6.03-.03.17-.03.48-.03,1.07ZM13.99,20.6l.73-2.18c.24,0,.62-.21.97-.45,0,.31.03.76.07,1.25,0,.03-.03.03-.03.07-.48,2.49-1.18,4.67-1.49,4.67,0,0-.03,0-.03-.03l-.03-.03c-.07-1.04-.17-2.11-.24-3.15q.04-.07.07-.14ZM14.23,24.24h.07c.59-.14,1.21-2.56,1.56-4.05.03.14.03.28.07.38.07.17.1.42.14.66.07.42.14.73.28.87-.38,2.22-1.14,5.68-1.73,5.92,0,0-.03,0-.1-.03,0,0-.03,0-.03-.03-.1-1.07-.21-2.36-.31-3.67.03-.03.07-.03.07-.03ZM14.62,28.29s.1,0,.14-.03c.8-.31,1.56-4.02,1.84-5.65,0,.94.03,2.56.07,2.94-.28,2.01-1,5.16-1.8,5.47-.07-.35-.21-1.35-.31-2.74t.07,0ZM16.62,21.82s-.03.03,0,0t0,0c-.1-.1-.17-.45-.21-.69-.03-.24-.1-.48-.17-.69-.17-.59-.21-2.39-.24-2.74.55-.69,1-3.39,1.25-5.16.07.9.17,2.11.31,3.67-.24,2.08-.69,5.3-.94,5.61ZM14.96,12.22c.17-.69,1.25-2.42,1.84-3.32.07.1.14.21.21.31-.48,1.84-1.94,6.68-2.98,7.03-.07.03-.17.03-.24-.03.1-.35.21-.73.35-1.07.28-.97.62-2.01.83-2.91ZM14.62,32.59c-.1,0-.62-.1-.73-1.07-.07-.62-.24-2.87-.45-5.23-.17-2.42-.38-4.92-.48-5.89-.07-.69.1-1.7.42-2.77.24,3.32.97,12.99,1.25,13.61.07.1.17.21.31.21h.1c.28,0,.66-.21.97-.42-.42.9-.87,1.46-1.39,1.56ZM17.63,24.59c-.24.38-.52.73-.66.87-.07-.52-.07-2.63-.07-3.5.28-.48.62-2.74.83-4.33.14,1.59.28,2.98.28,3.43,0,.59-.14,1.94-.38,3.53Z"/>
        <path class="cls-1" d="M9.59,12.22c-.24-1-2.04-3.67-2.11-3.77-.03-.07-.1-.1-.21-.1-.07,0-.17.03-.21.07-.31.35-.94,1.14-.69,1.66.1.45-.24,4.05-.48,6.68-.21,2.08-.35,3.88-.35,4.43,0,.97.87,11.64,3.84,12.05h.03c.38,0,1.11-.31,1.25-1.52.07-.66.24-2.87.45-5.26.17-2.42.38-4.92.48-5.85.14-1.32-.52-3.43-1.18-5.47-.28-1-.62-2.04-.83-2.91ZM6.51,25.38c.24.31.45.48.59.52.17,1.14.76,4.57,1.77,5.4-.31-.1-.76-.42-1.04-.66-.59-1.46-1-3.46-1.32-5.26ZM6.86,9.77v.07-.07ZM6.89,9.94c.38,1.39,1.32,4.57,2.32,6.03v.07c.03.62.1,1.84.07,2.18-.17-.03-.59-.28-.97-.55-.66-.62-1.25-4.99-1.39-6.61,0-.62,0-.93-.03-1.11ZM8.03,17.83c0,.35-.03,2.15-.24,2.74-.07.21-.1.45-.17.69-.03.24-.1.59-.17.69l-.03-.03c-.24-.35-.73-3.53-.97-5.61.14-1.56.24-2.74.31-3.67.28,1.76.73,4.47,1.28,5.19ZM9.18,31.13c-.8-.31-1.52-3.46-1.8-5.47.07-.38.07-2.01.07-2.94.28,1.63,1.04,5.37,1.84,5.65.03,0,.1.03.14.03h.07c-.1,1.38-.24,2.39-.31,2.74ZM9.56,28.02s-.03,0-.03.03c-.03.03-.07.03-.1.03-.59-.21-1.35-3.71-1.73-5.92.1-.14.17-.45.28-.87.03-.24.1-.48.14-.66.03-.1.07-.21.07-.38.35,1.49.97,3.91,1.56,4.05h.1c-.07,1.38-.17,2.63-.28,3.7ZM9.91,23.96s-.03.03,0,0l-.07.07c-.31,0-1-2.18-1.49-4.67t-.03-.07c.03-.48.03-.94.07-1.25.35.24.73.45.97.45l.73,2.18s.03.07.07.07c-.07,1.11-.17,2.18-.24,3.22ZM10.22,20.12l-.62-1.87c.03-.31-.03-1.35-.07-1.9.14.14.28.24.42.31.07.03.14.03.21.03s.17-.03.24-.07c.03.07.03.17.07.24-.1,1-.17,2.11-.24,3.25ZM7.24,9c.59.9,1.66,2.63,1.84,3.32.21.9.55,1.94.87,2.94.1.35.21.73.35,1.07-.07.03-.14.07-.24.03-1.07-.35-2.53-5.19-2.98-7.07.03-.1.1-.21.17-.31ZM6.34,17.73c.21,1.59.55,3.84.83,4.33,0,.87,0,2.94-.07,3.5-.14-.14-.42-.48-.66-.87-.24-1.59-.35-2.94-.35-3.53-.03-.45.1-1.84.24-3.43ZM11.08,20.54c-.1.97-.31,3.46-.48,5.89-.17,2.36-.35,4.61-.45,5.23-.1.97-.66,1.04-.73,1.07-.52-.1-.97-.66-1.39-1.49.31.21.66.42.97.42h.1c.14-.03.24-.1.31-.21.28-.62,1-10.29,1.25-13.61.31,1,.48,2.01.41,2.7Z"/>
        <path class="cls-1" d="M7.1,3.46s1.32-.14,1.7-.55c.38-.42.28-1.04-.52-1.35-.8-.31-1.87.45-1.8,1.18.03.73.62.73.62.73Z"/>
        <path class="cls-1" d="M15,2.91c.38.42,1.7.55,1.7.55,0,0,.59,0,.62-.73.07-.73-1-1.46-1.8-1.14-.8.31-.9.9-.52,1.32Z"/>
        <path class="cls-1" d="M9.45,2.53s1.04-.66,2.39-.66,2.46.69,2.46.69c-.24-.66.55-1.35.55-1.35l-1.77-.59s-.55-.62-1.25-.62-1.14.55-1.39.66c-.24.1-1.94.52-1.94.52,1.21.55.93,1.35.93,1.35Z"/>
        <path class="cls-1" d="M13.64,12.99s-1.63-.42-3.32.07l.45,1.28s1.25-.21,2.49,0l.38-1.35Z"/>
        <path class="cls-1" d="M13.06,14.99s-1.04-.38-2.15,0l.38,1.28s.87-.14,1.35,0l.42-1.28Z"/>
        <path class="cls-1" d="M11.43,16.97l.48,1.7.14-.03.48-1.7s-.59-.21-1.11.03Z"/>
        <path class="cls-1" d="M11.91,21.75l-.21,2.36h.66l-.31-2.36h-.14Z"/>
        <path class="cls-1" d="M13.96,11.6l1.84-2.94s.17-.28-.17-.38c-1.07-.31-4.23-.66-7.27-.07,0,0-.38.07-.1.52.28.45,1.52,2.49,1.8,3.05l.17.69s1.87-.35,3.57,0l.17-.87ZM10.22,11.18l-.48-.69c.52-.59.28-2.01.28-2.01,0,0,.31,1.25.83,1.21.52-.07.94-1.49.94-1.49,0,2.56-1.56,2.98-1.56,2.98ZM12.05,8.24s.42,1.42.94,1.49.83-1.21.83-1.21c0,0-.28,1.42.28,2.01l-.48.69s-1.56-.45-1.56-2.98Z"/>
        <path class="cls-1" d="M20.88,12.02s.48-.42.38-.73c0,0-.8-.62-1.9-2.15,0,0-.66-1.14-1.7-.94,0,0,.48.38.59.94l.1.1c.38.14,1.25,1.94,2.53,2.77Z"/>
        <path class="cls-1" d="M23.65,11.7s-.83-.28-1.94-.1l-.28.59s.31-.1.83-.07c.52.07,1.42.1,1.42.1l.31.21v-.94l-.35.21Z"/>
        <path class="cls-1" d="M5.78,9.28c.1-.59.59-.94.59-.94-.9-.31-1.7.94-1.7.94-1.11,1.52-1.9,2.15-1.9,2.15-.1.31.38.73.38.73,1.25-.83,2.15-2.63,2.53-2.77l.1-.1Z"/>
        <path class="cls-1" d="M2.32,11.77c-1.11-.17-1.94.1-1.94.1l-.38-.21v.94l.31-.21s.48-.07,1-.1c.52-.07,1.25.07,1.25.07l-.24-.59Z"/>
        <path class="cls-1" d="M19.91,18.84s-.38-.69-1.25-1.52l.1,1.32.8.8s1.25.07,1.59.52l.1.62.8-1.04h-.52s-.45-.48-1.63-.69Z"/>
        <path class="cls-1" d="M4.12,18.84c-1.14.21-1.59.69-1.59.69h-.52l.8,1.04.1-.62c.31-.48,1.59-.52,1.59-.52l.8-.8.1-1.32c-.94.87-1.28,1.52-1.28,1.52Z"/>
        <path class="cls-1" d="M4.43,2.84c-.1.17.83,1.14.83,1.14l.76.76.52-.94-.35-.38s-.87-1.11-1.11-1.11c-.21,0-.55.35-.66.52Z"/>
        <path class="cls-1" d="M4.19,2.39c.17-.17.62-.38.62-.38l-.73-.97-.03-.42-.9.45.35.1.69,1.21Z"/>
        <path class="cls-1" d="M18.6,3.98s.94-.97.83-1.14c-.1-.17-.42-.52-.66-.52s-1.11,1.11-1.11,1.11l-.35.38.52.94.76-.76Z"/>
        <path class="cls-1" d="M20.4,1.18l.35-.1-.9-.45-.03.38-.73.97s.45.21.62.38l.69-1.18Z"/>
      </g>
    </g>
  </g>
</svg>