<?xml version="1.0" encoding="UTF-8"?>
<svg id="Camada_2" xmlns="http://www.w3.org/2000/svg" viewBox="0 0 24 25.58">
  <defs>
    <style>
      .cls-1 {
        fill: #000831;
      }
    </style>
  </defs>
  <g id="Camada_1-2" data-name="Camada_1">
    <g id="id9:id9">
      <g id="id9:surface26861">
        <path class="cls-1" d="M11.91,3.03s-.03-1.15.35-1.33c0,0-.29-.11-.85.51-.56.64-.75.69-.88.88-.13.21-.11.4-.11.4,0,0,.88-.43,1.49-.45Z"/>
        <path class="cls-1" d="M13.38,3.61s-.05-.43-.16-.56c-.11-.13-.77-.91-.85-.96,0,0-.13.48-.13.96-.03-.03.64.03,1.15.56Z"/>
        <path class="cls-1" d="M11.86,12.78c-1.15,0-1.6-.69-1.6-.69,0,0,.51,2.11.75,2.96.24.85.75.91,1.04.96.64.11.85-.37,1.04-1.04.24-.91.75-2.91.75-2.91-.16.19-.85.72-1.97.72Z"/>
        <path class="cls-1" d="M12.02,16.54c-.51,0-1.01-.32-1.01-.32,0,0-.19,1.25.96,1.25s1.15-.93,1.07-1.23c0-.03-.51.29-1.01.29Z"/>
        <path class="cls-1" d="M9.03,20.14c.91.29,3.07.77,5.94-.05-.08-.35-.19-.67-.32-.91-.27-.53-.96-1.44-2.69-1.44h-.19c-1.36.08-2.45,1.09-2.75,2.4Z"/>
        <path class="cls-1" d="M11.75,21.02c-1.28,0-2.24-.24-2.83-.43-.05.64,0,1.44.19,2.19.96.29,3.07.72,5.87-.11.13-.72.13-1.49.03-2.16-1.2.37-2.29.51-3.25.51Z"/>
        <path class="cls-1" d="M9.3,23.34c.45,1.25,1.33,2.32,2.72,2.24,1.63-.08,2.48-1.12,2.85-2.37-1.17.32-2.21.43-3.12.43-1.04.03-1.87-.13-2.45-.29Z"/>
        <path class="cls-1" d="M13.3,4.94c.37-.11.96-.24,1.81-.48,1.68-.48,2.35-1.12,1.97-1.36-.05-.05-.13-.05-.19-.05-.35,0-.75.48-1.87.91-.8.29-1.41.61-1.79.83-.08.05-.03.16.05.16Z"/>
        <path class="cls-1" d="M17.4,3.13s.13-.13.32-.37c.13-.08.35-.21.4-.27.03-.03,0-.11-.05-.16.08-.11.16-.21.24-.32.11-.08.29-.24.35-.29.03-.03,0-.08-.05-.13.08-.13.16-.27.24-.4.11-.11.27-.24.32-.29.03-.03-.03-.11-.08-.13.05-.13.11-.27.13-.4,0,0,.08-.27-.13-.35-.19-.08-.21.24-.35.56-.05-.03-.11-.03-.13,0-.05.03-.08.29-.08.43-.08.13-.16.27-.21.4-.05-.03-.11-.05-.16-.03-.05.03-.13.37-.13.48-.08.11-.13.19-.19.27-.05-.03-.13-.05-.16-.05-.05.03-.19.43-.19.48-.16.19-.24.27-.24.27,0,0,.16.13.16.32Z"/>
        <path class="cls-1" d="M8.9,4.49c.85.24,1.41.4,1.79.48h.03c.08,0,.11-.11.03-.16-.37-.21-.99-.56-1.76-.85-1.12-.43-1.52-.91-1.87-.91-.05,0-.13.03-.19.05-.4.27.29.93,1.97,1.39Z"/>
        <path class="cls-1" d="M4.9.79c-.05.05-.11.11-.08.13.05.05.21.21.32.29.08.13.16.27.24.4-.05.05-.08.11-.05.13.05.05.24.21.35.29.08.11.16.21.24.32-.05.05-.11.13-.05.16.05.05.27.19.4.27.19.21.32.37.32.37,0-.16.21-.29.21-.29,0,0-.08-.08-.24-.27-.03-.05-.13-.45-.19-.48-.03-.03-.11,0-.16.05-.05-.08-.13-.19-.19-.27-.03-.11-.08-.45-.13-.48-.03-.03-.08,0-.16.03-.08-.13-.16-.24-.21-.4-.03-.13-.05-.4-.08-.43-.03-.03-.08,0-.13,0-.16-.35-.16-.64-.35-.56-.21.08-.13.35-.13.35-.03.11.02.24.08.37Z"/>
        <path class="cls-1" d="M11.11,4.57c.19.11.29.48.13.72s-.59.35-.72-.03c-.21-.05-.48-.13-.88-.24-.19.35-.37.8-.51,1.36,0,0-.11.85.45,1.36.32.27.77.48,1.25.59-.59.37-.99,1.04-.99,1.79,0,1.17.96,2.11,2.11,2.11s2.11-.96,2.11-2.11c0-.75-.4-1.41-.99-1.79.48-.13.96-.32,1.25-.59.56-.51.45-1.36.45-1.36-.13-.59-.32-1.07-.53-1.41-.43.11-.72.19-.93.24-.16.29-.56.21-.72-.03-.16-.24-.05-.64.13-.72.16-.08.27-.05.32,0,.16-.08.35-.19.56-.29-.19-.16-.32-.24-.32-.24-.45-.37-1.28-.48-1.41-.51-.13.03-.83.16-1.28.51,0,0-.16.08-.37.29.21.11.4.21.56.29.11,0,.21-.02.32.05ZM10.2,7.08c-.05.11-.4.11-.53-.35s.05-.77.05-.77c0,0,.13-.27.32-.29.16-.03.29.32.24.64-.08.32.08.43-.08.77ZM13.99,5.69c.16.03.32.29.32.29,0,0,.21.32.05.77-.13.45-.51.45-.53.35-.13-.35,0-.45-.05-.77-.05-.32.05-.67.21-.64Z"/>
        <path class="cls-1" d="M14.92,11.82c.16-.83-.48-.77-.48-.77l-.29.53s.13.16.13.43-.13.45-.13.45c0,0,.59.19.77-.64Z"/>
        <path class="cls-1" d="M17.06,9.77l.48-1.15s.08-.37-.61-.21c0,0-.51,1.41-1.81,2.53,0,0,.27.35.08.99.03-.03,1.39-.99,1.87-2.16Z"/>
        <path class="cls-1" d="M17.24,7.93s.43,0,.51.29c0,0,1.25-.85,1.84-1.63.08-.11.11-.24.11-.37,0,0,.08-.08.19-.21.13-.05.43-.13.48-.19s-.05-.16-.13-.24c.11-.13.24-.27.35-.4.16-.05.35-.11.4-.16.05-.03-.03-.11-.08-.19l.24-.24s.35-.21.08-.43-.48.29-.48.29l-.13.19c-.05-.03-.11-.05-.13-.03-.05.03-.13.29-.19.43l-.32.4c-.05-.03-.11-.03-.13-.03-.05.03-.13.24-.16.4l-.24.29s-.05-.05-.43.13c-.35.13-1.76,1.68-1.76,1.68Z"/>
        <path class="cls-1" d="M9.94,12.36s-.13-.21-.13-.48.13-.43.13-.43l-.29-.51s-.64-.05-.48.77c.19.83.77.64.77.64Z"/>
        <path class="cls-1" d="M7.17,8.28c-.69-.16-.61.21-.61.21l.48,1.15c.48,1.15,1.84,2.13,1.84,2.13-.16-.64.08-.99.08-.99-1.28-1.09-1.79-2.51-1.79-2.51Z"/>
        <path class="cls-1" d="M2.95,4.47c.08.05.16.16.24.24-.08.08-.13.16-.08.19.05.05.24.11.4.16.11.13.24.27.35.4-.08.08-.19.19-.13.24.05.05.35.13.48.19.11.13.19.21.19.21-.03.13.03.27.11.37.59.77,1.84,1.63,1.84,1.63.08-.29.51-.29.51-.29,0,0-1.41-1.55-1.81-1.71-.37-.16-.43-.13-.43-.13l-.24-.29c-.05-.13-.11-.37-.16-.4-.03,0-.08,0-.13.03l-.32-.4c0-.11-.08-.37-.13-.4-.03,0-.08,0-.13.03l-.13-.19s-.21-.51-.48-.29c-.27.21.08.43.08.43Z"/>
        <path class="cls-1" d="M5.78,13.1c-.35.61.05.64.05.64,0,0,.11-.03.32,0,.43.03.67.11,1.04.16,1.55.29,2.37.56,2.37.56-.27-.16-.16-.8-.16-.8,0,0-1.49-.37-2.43-.53-.48-.1-1.2-.02-1.2-.02Z"/>
        <path class="cls-1" d="M1.67,15.82c.05.11.13.24.19.19.08-.05.27-.35.32-.45.08-.03.16-.08.24-.11.05.08.13.19.16.16.05-.03.19-.21.27-.35.13-.05.21-.11.21-.11.13.05.27.05.4,0,.91-.35,1.89-1.31,1.89-1.31-.27-.16-.05-.75-.05-.75,0,0-1.81,1.09-2.08,1.41s-.24.37-.24.37l-.19.08c-.05,0-.48,0-.53.05-.03.03-.03.11,0,.19l-.43.19c-.13,0-.32.03-.35.05-.03.03-.03.05,0,.11l-.4.21c-.16,0-.4,0-.43.05-.03.03-.03.08,0,.13l-.21.08s-.56.05-.43.37c.13.29.43.03.43.03.08-.05.19-.11.32-.16.05.08.11.16.16.13.05-.03.19-.21.27-.35.16-.08.32-.16.48-.24Z"/>
        <path class="cls-1" d="M10.39,14.25l-.24-.91s-.48.35-.48.53,0,.32.13.48c.16.19.59-.11.59-.11Z"/>
        <path class="cls-1" d="M17.88,13.74h.32s.4-.03.05-.64c0,0-.69-.08-1.15,0-.93.16-2.43.53-2.43.53,0,0,.08.64-.16.8,0,0,.83-.24,2.37-.56.32-.03.56-.11.99-.13Z"/>
        <path class="cls-1" d="M23.59,16.04l-.21-.08v-.13c-.03-.05-.27-.05-.43-.05l-.51-.21v-.11s-.19-.05-.35-.05l-.43-.19c.03-.05.03-.13,0-.19-.05-.05-.45-.05-.53-.05l-.13-.05s.03-.05-.24-.37c-.27-.32-2.08-1.41-2.08-1.41,0,0,.21.59-.05.75,0,0,.99.96,1.89,1.31.13.05.27.05.4,0,0,0,.08.03.21.11.08.13.21.32.27.35.05.03.13-.05.16-.16.08.03.16.08.24.11.08.11.27.4.32.45.05.05.13-.11.19-.19.16.08.32.16.48.24.08.13.21.29.27.35.05.03.11-.05.16-.13.13.08.24.13.32.16,0,0,.29.27.43-.03.19-.32-.37-.4-.37-.4Z"/>
        <path class="cls-1" d="M14.2,14.38c.13-.16.13-.29.13-.48s-.48-.53-.48-.53l-.24.91s.45.27.59.11Z"/>
        <path class="cls-1" d="M9.99,16.68c-.21-.16-.32-.56-.32-.56,0,0-1.44.48-2.35.85-.43.19-.99.61-.99.61.03.69.37.51.37.51,0,0,.08-.08.27-.19.37-.21.61-.29.96-.4,1.04-.4,1.71-.64,2-.72.08,0,.11-.08.05-.11Z"/>
        <path class="cls-1" d="M6.07,17.74s-2.4,2.88-2.45,3.31c-.03.27-.03.35-.03.35l-.35.48c-.13.05-.32.16-.32.19s.03.11.08.16l-.27.37c-.13.05-.32.16-.35.21,0,.03.03.11.08.16l-.27.35c-.13.05-.37.16-.37.21s.05.13.08.19l-.35.45c-.13.05-.35.16-.37.21,0,.05.03.11.08.19l-.05.05s-.35.43-.05.56c.32.13.35-.27.35-.27,0-.03.03-.05.03-.11.05.03.11.03.11,0,.03-.05.08-.27.11-.43.08-.13.21-.32.32-.48.08.05.16.08.19.05.05-.05.08-.32.11-.45.08-.11.16-.21.24-.32.08.05.16.11.19.05.05-.08.11-.35.13-.48.08-.11.16-.19.21-.29.08.05.16.11.19.05.05-.05.08-.32.13-.45.16-.21.27-.35.27-.35l.11-.13c.13-.05.27-.08.32-.19.4-.88,2.29-3.04,2.29-3.04-.24.06-.38-.61-.38-.61Z"/>
        <path class="cls-1" d="M10.6,16.52s-.03-.27-.03-.37c0-.13.11-.48.11-.48l-.11-.19s-.29.16-.4.27-.29.19-.13.56c.19.32.56.21.56.21Z"/>
        <path class="cls-1" d="M17.64,17.58s-.56-.45-.99-.61c-.88-.37-2.35-.85-2.35-.85,0,0-.11.4-.32.56-.05.03-.03.11.03.11.29.08.96.32,2,.72.35.13.59.19.96.4.19.11.27.19.27.19,0,0,.37.21.4-.51Z"/>
        <path class="cls-1" d="M22.71,24.57c.05-.05.08-.13.08-.19-.03-.05-.24-.16-.37-.21l-.32-.45c.05-.05.11-.13.08-.19s-.24-.16-.37-.21l-.27-.35c.05-.05.08-.13.08-.16,0-.05-.21-.13-.35-.21l-.27-.37c.05-.05.08-.13.08-.16,0-.05-.19-.13-.32-.19l-.35-.48s0-.08-.03-.35c-.03-.43-2.45-3.31-2.45-3.31,0,0-.16.64-.45.59,0,0,1.87,2.16,2.29,3.04.05.13.21.16.32.19l.11.13s.11.13.27.35c.03.16.08.4.13.45.03.05.11,0,.19-.05.08.08.13.19.21.29.03.16.08.43.13.48.03.05.11,0,.19-.05.08.11.16.21.24.32.03.16.08.4.11.45s.11,0,.19-.05c.13.19.24.35.32.48.03.16.08.35.11.43.03.03.08.03.11,0,.03.03.03.08.03.11,0,0,.03.4.35.27.32-.13-.05-.56-.05-.56v-.03Z"/>
        <path class="cls-1" d="M13.83,15.72c-.11-.11-.4-.27-.4-.27l-.11.19s.11.37.11.48c0,.13-.03.37-.03.37,0,0,.37.13.56-.24.19-.37-.03-.43-.13-.53Z"/>
      </g>
    </g>
  </g>
</svg>