<?xml version="1.0" encoding="UTF-8"?>
<svg id="Camada_2" xmlns="http://www.w3.org/2000/svg" viewBox="0 0 24 24">
  <defs>
    <style>
      .cls-1 {
        fill: #000831;
      }
    </style>
  </defs>
  <g id="Camada_1-2" data-name="Camada_1">
    <path class="cls-1" d="M17.68,14.5h-1.24c-.24-3.03-1.23-5.83-2.74-8.22.54-.8.85-1.76.86-2.79,2.34.97,5.03-.14,6-2.49,1.93,1.93,1.93,5.07,0,7-1.68,1.68-2.75,3.97-2.88,6.5Z"/>
    <path class="cls-1" d="M0,0c8.28,0,15,7.17,15,16,0,0,3.33,0,3.66.02l.34-2.02,1.5,1,1.5-1,.42,2.52c.57.14,1.1.29,1.58.48v1c-6.13,3.71-14.62,6-24,6v-1c2.64,0,5.03-1.34,6.75-3.5,0-2.21-1.79-4-4-4l-.27-.5c.97-2.34-.14-5.03-2.48-6v-.5C2.21,6.29,2.21,2.71,0,.5v-.5Z"/>
  </g>
</svg>