<?xml version="1.0" encoding="UTF-8"?>
<svg id="Camada_2" xmlns="http://www.w3.org/2000/svg" viewBox="0 0 24 24">
  <defs>
    <style>
      .cls-1 {
        fill: #000831;
      }
    </style>
  </defs>
  <g id="Camada_1-2" data-name="Camada_1">
    <g>
      <path class="cls-1" d="M.92,23.32c-.11.11-.15.29-.09.44.06.15.21.25.37.25h.7c2.27,0,4.42-.89,5.97-2.4H2.63l-1.72,1.72Z"/>
      <path class="cls-1" d="M16.62,19.75c.68-.44,1.3-.86,1.88-1.27,1.38-2.25,1.83-4.26,1.34-5.98-.72-2.51-3.22-3.76-4.17-4.23-.08-.04-.13-.07-.18-.09-.3.67-.71,1.28-1.24,1.81l-5.21,5.21h4.97c.22,0,.4.18.4.4s-.18.4-.4.4h-5.77l-.8.8h4.97c.22,0,.4.18.4.4s-.18.4-.4.4h-5.77l-.8.8h4.97c.22,0,.4.18.4.4s-.18.4-.4.4h-5.77l-.8.8H.4c-.22,0-.4.18-.4.4s.18.4.4.4h12.02l-1.07.89c-.09.08-.14.19-.14.31,0,.12.06.23.15.31l1.11.89h-.46c-.22,0-.4.18-.4.4s.18.4.4.4h4.4c.22,0,.4-.18.4-.4s-.18-.4-.4-.4h-2.66l-1.51-1.21,1.5-1.25c1.03-.11,2.02-.45,2.89-1Z"/>
      <path class="cls-1" d="M19.6,2.4c-.22,0-.4.18-.4.4s.18.4.4.4.4-.18.4-.4-.18-.4-.4-.4Z"/>
      <path class="cls-1" d="M22.29,4.34l1.41-.35c.14-.04.26-.15.29-.29.04-.14-.01-.3-.12-.39l-.81-.73c-.51-1.71-2.2-2.79-3.99-2.54-1.74.26-3.06,1.84-3.06,3.69v2.02c0,.58-.08,1.14-.24,1.68.01,0,.02,0,.03.01.06.03.14.07.23.12,1.03.51,3.77,1.88,4.58,4.73.44,1.53.22,3.24-.62,5.09,4.24-3.39,4.83-6.14,2.77-10.34-.73-1.48-.57-2.37-.47-2.68ZM19.6,4c-.66,0-1.2-.54-1.2-1.2s.54-1.2,1.2-1.2,1.2.54,1.2,1.2-.54,1.2-1.2,1.2Z"/>
    </g>
  </g>
</svg>