<?xml version="1.0" encoding="UTF-8"?>
<svg id="Camada_2" xmlns="http://www.w3.org/2000/svg" viewBox="0 0 24 20.29">
  <defs>
    <style>
      .cls-1 {
        fill: #000831;
      }
    </style>
  </defs>
  <g id="Camada_1-2" data-name="Camada_1">
    <g>
      <path class="cls-1" d="M12.54,5.99l-.06-.13h0c-.08-.17-.4-.33-.5-.3-.47.28-1.04.79-.94,1.04.15.34,1.05.1,1.44-.06.22-.11.13-.39.06-.55Z"/>
      <path class="cls-1" d="M18.94,13.47c.19-.07.16-1.14-.16-2.48-.16.08-.37.11-.61.12.2,1.22.56,2.31.78,2.36Z"/>
      <path class="cls-1" d="M18.67,10.55s.01-.03,0-.07c-.21-.39-1.74-.89-2.95-1.17.01.06.03.13.04.19.05.36-.04.59-.16.74,1.59.45,2.95.6,3.08.31Z"/>
      <path class="cls-1" d="M17.66,9.43c.11.02.22.03.33.05.17.02.33.03.5.04.17-1.7.2-3.02.09-3.71-.06-.42-.17-.71-.26-.89-.35.39-.76.68-.96.81.07.55.09,1.61-.13,3.56.14.05.28.09.42.14Z"/>
      <path class="cls-1" d="M20.68,6.2c.07.65.03,1.7-.12,3.07.35-.1.68-.21.99-.35.14-.86.24-2.42-.22-3.27-.22.27-.49.45-.65.55Z"/>
      <path class="cls-1" d="M12.87,5.68v.03c.59.37,1.34,1.09,1.93,1.88.24-.73.4-1.65.19-2.55-.11-.47-.22-.79-.31-1-.55.79-1.75,1.05-2.44,1.14.28.09.54.31.63.51Z"/>
      <path class="cls-1" d="M16.93,5.65c-.11-.64-.29-1.03-.42-1.25-.37.44-.83.76-1.04.91.14,1-.09,1.98-.37,2.71.18.28.33.55.45.82.27.06.75.17,1.28.32.23-2.04.18-3.03.11-3.51Z"/>
      <path class="cls-1" d="M7.9,7.08l-.12.07c-.05.03-.11.06-.18.08.3,1,1.45,2.4,2.11,2.5.12.02.18-.02.2-.03.15-.12.09-.48-.17-.95,0,0,0-.01-.01-.02-.38-.68-1.09-1.48-1.62-1.86-.06.09-.13.17-.21.22Z"/>
      <path class="cls-1" d="M23.14,7.98c.09-.07.18-.15.26-.22.45-.4.6-.68.6-.75-.03-.87-.28-1.97-.91-3.05.01.42-.04.93-.25,1.39.53.85.42,1.95.31,2.62Z"/>
      <path class="cls-1" d="M13.04,6.35c-.02.25-.15.46-.38.58-.08.03-.38.16-.74.23.55,1.19,1.85,2.62,2.75,2.92.24.08.42.07.53-.03.11-.1.15-.26.12-.48-.12-.89-1.3-2.42-2.28-3.21Z"/>
      <path class="cls-1" d="M19.94,5.16c-.33.37-.72.64-.91.76.08.76.04,1.99-.11,3.59.41-.01.81-.06,1.19-.14.18-1.6.22-2.8.1-3.38-.09-.44-.2-.69-.28-.83Z"/>
      <path class="cls-1" d="M2.62,5.84c.12-.13.12-.25.1-.27-.02-.01-.15,0-.26.14-.12.13-.12.25-.1.27.02.01.15,0,.26-.14Z"/>
      <path class="cls-1" d="M11.96,4.77c.66-.06,2.48-.34,2.58-1.59.06-.82.22-2.57.28-3.18-1.07-.01-2.09.07-3.05.22.66,1.11.59,3.07.19,4.55Z"/>
      <path class="cls-1" d="M16.63,3.32c.15-.81.25-2.58.28-3.16-.36-.05-.73-.1-1.12-.12-.18-.01-.36-.02-.54-.03-.05.58-.21,2.37-.28,3.2,0,.11-.03.22-.06.33.1.17.28.55.47,1.31.4-.28,1.13-.89,1.25-1.53Z"/>
      <path class="cls-1" d="M2.29,7.49c.09.05.18.06.28.03.3-.08.63-.43.93-.83,0,0,.01-.01.02-.02.33-.45.62-.96.77-1.25.18-.91.23-2.27-.19-2.42,0,0-.01,0-.02,0-.02,0-.05,0-.08,0-.45,0-1.63.65-2.22,1.81-.4.8-.03,2.36.52,2.7ZM1.92,5.98c-.01-.19.07-.39.21-.56h0c.26-.3.64-.37.86-.18.09.08.14.19.15.32.01.19-.07.39-.21.56-.16.19-.38.29-.57.29-.11,0-.22-.03-.3-.11-.09-.08-.14-.19-.15-.32Z"/>
      <path class="cls-1" d="M18.96,5.46c.35-.25.95-.74,1.06-1.28.14-.73.23-2.44.25-2.92-.34-.18-.7-.35-1.09-.5-.03.67-.13,2.36-.28,3.14-.04.23-.15.45-.28.65.09.16.24.46.34.92Z"/>
      <path class="cls-1" d="M20.6,5.75c.23-.15.55-.43.64-.83.14-.63.2-2.42.22-2.86-.24-.19-.49-.38-.77-.55-.03.67-.11,2.08-.24,2.76-.04.19-.12.37-.22.54.11.15.26.43.38.95Z"/>
      <path class="cls-1" d="M22.57,3.19c-.21-.26-.44-.52-.7-.77-.03.7-.09,2.03-.21,2.58-.02.08-.04.16-.07.23.12.17.22.37.29.59,1.08-.69.75-2.36.69-2.63Z"/>
      <path class="cls-1" d="M17.29,5.26c.38-.27,1.07-.83,1.19-1.45.16-.8.25-2.67.28-3.21-.44-.15-.91-.27-1.42-.36-.03.63-.13,2.34-.28,3.16-.04.22-.14.44-.27.64.13.19.36.57.51,1.22Z"/>
      <path class="cls-1" d="M21.99,6.25c.18.87.1,1.88.02,2.44.22-.12.44-.24.63-.36,0-.05.02-.11.03-.18.1-.53.29-1.58-.1-2.39-.15.19-.34.35-.59.49Z"/>
      <path class="cls-1" d="M7.68,6.71c.05-.03.13-.15.17-.31.03-.14.03-.27-.01-.35l-.98-1c-.21-.2-.29-.26-.35-.26-.03,0-.05.02-.09.04-.13.09-.14.11-.02.48v.02s.53,1.35.53,1.35c0,0,0,.01,0,.02,0,.02.02.07.12.11.16.06.4.03.51-.03l.12-.07h0Z"/>
      <path class="cls-1" d="M5.11,7.63h-.14s-.02.01-.03.01c.53,1.14,1.65,2.13,2.33,2.24.13.02.21,0,.26-.02.02-.02.05-.04.07-.05,0,0,0,0,0,0,0,0,0,0,0-.01.01-.02.03-.05.02-.12-.08-.52-1.28-1.56-2.14-2.19-.11.09-.24.14-.38.15Z"/>
      <path class="cls-1" d="M3.29,7.56l.58.95-.29-1.24c-.09.1-.19.2-.28.29Z"/>
      <path class="cls-1" d="M4.97,11.15s0,.02.01.04c.17.14,1.05-.28,2.01-.94-.23-.07-.49-.21-.75-.39-.62.45-1.26,1.04-1.27,1.3Z"/>
      <path class="cls-1" d="M5.27,7.11c.04-.05.07-.11.06-.18l-.18-1.07c-.05-.29-.11-.34-.19-.34-.02,0-.04,0-.06,0-.22.02-.26.09-.25.27l-.02,1.16c0,.07.02.13.07.17.06.06.15.08.24.08h.14c.07-.01.14-.05.18-.1Z"/>
      <path class="cls-1" d="M13.09,10.61s.04-.02.06-.03c.02-.01.02-.03.02-.03.07-.32-1.21-1.02-2.85-1.57.18.5.1.8-.05.97,1.09.42,2.4.82,2.82.66Z"/>
      <path class="cls-1" d="M2.46,7.96s-.01,0-.02,0c.03.22.08.57.15,1.12l.16-1.18s-.04.01-.06.02c-.08.02-.16.03-.23.03Z"/>
      <path class="cls-1" d="M4.77,5.12s.06-.01.09-.02c.58-.07.67.46.71.68v.07c.16.02.36.05.61.08l-.19-.5c-.11-.35-.22-.68.19-.97.4-.28.69,0,.97.26l.07.07.94.96s.02.02.03.03c.07.12.11.27.11.43.92.13,1.75.24,1.99.26.11.01.21-.02.31-.08,0,0,.02-.02.03-.02.07-.3.33-.59.6-.81.72-1.52.89-4.17.09-5.28-3.42.62-5.98,2.03-6.77,2.51.42.51.32,1.66.23,2.31Z"/>
      <path class="cls-1" d="M12.88,11.06c-.34.79-1.3,2.87-1.94,4.22-.02.05-.03.1-.01.15l.99,3.39-.27.49c-.06.1-.02.23.08.29.03.02.07.03.1.03.08,0,.15-.04.19-.11l.31-.57s.03-.11.02-.16l-.99-3.39c.13-.27.58-1.23,1.02-2.2.65-1.41.91-1.99,1-2.26l-.51.13ZM4.73,11.53l-.13,2.54s0,.09.03.12c.73,1.2,1.53,2.56,1.68,2.9-.08.16-.21.44-.31.67-.05.11,0,.23.11.28.03.01.06.02.08.02.08,0,.16-.05.2-.13.12-.28.27-.62.31-.68.11-.14.16-.2-1.68-3.23l.12-2.41-.42-.09ZM18.93,13.9l2.36,2.12c-.65,1.17-1.55,2.8-1.59,2.87-.05.07-.05.17,0,.24l.77,1.06c.04.06.11.09.17.09.04,0,.09-.01.12-.04.1-.07.12-.2.05-.3l-.69-.95c.26-.46,1.09-1.97,1.62-2.92.05-.09.03-.2-.04-.26l-2.38-2.14-.39.22ZM1.51,7.15c-.34.31-1.19,1.18-1.5,2.07-.04.11.02.23.13.27.02,0,.05.01.07.01.09,0,.17-.06.2-.14.26-.75.98-1.51,1.31-1.83-.2.38-.73,1.49-.71,2.88,0,.12.1.21.21.21h0c.12,0,.21-.1.21-.22-.02-1.09.34-2.02.56-2.48l-.5-.77Z"/>
    </g>
  </g>
</svg>