<?xml version="1.0" encoding="UTF-8"?>
<svg id="Camada_2" xmlns="http://www.w3.org/2000/svg" viewBox="0 0 24 19.54">
  <defs>
    <style>
      .cls-1 {
        fill: #000831;
      }
    </style>
  </defs>
  <g id="Camada_1-2" data-name="Camada_1">
    <g>
      <path class="cls-1" d="M8.6.74s0,0,0,0c.01-.08.02-.19,0-.29-.04-.17-.15-.31-.32-.4-.42-.21-1.04.23-1.38.61.25.04.49.1.72.17.29-.16.63-.23.98-.1Z"/>
      <path class="cls-1" d="M21.36,10.76c-.2-1.21-1.64-6.4-4.51-7.81-2.48-1.22-4.27-.62-5.45-.23-.22.07-.4.13-.57.18-1.06.28-1.47-.15-1.62-.31-.22.61-.71,1.28-1.53,1.77-.03.02-.07.03-.11.03-.07,0-.15-.04-.19-.11-.06-.1-.03-.24.08-.3,0,0,0,0,0,0,1.03-.6,1.5-1.56,1.45-2.2-.02-.22-.12-.51-.46-.64-.87-.32-1.69,1.34-1.7,1.36-.02.04-.05.07-.09.09-.06.03-.14.04-.2,0-.11-.05-.15-.18-.1-.29.02-.05.33-.68.82-1.15-.96-.24-2.18-.21-2.86-.06C3.41,1.3.36,2.52,0,2.82c-.01.27.57.76.98.99.21.12.62.23.98.32.04,0,.07,0,.11.03.2.05.38.09.49.11.12.02.19.14.17.25-.02.12-.14.19-.25.17-.02,0-.22-.04-.49-.11-.58-.26-.5.21-.36.25.11.04.26.09.43.14,1.5.49,2.98,1.01,3.26,1.52.33.6,1.6,2.62,2.48,3.63.13.15.28.29.42.43.42.41.85.84,1.01,1.51,0,0,0,0,0,0,0,0,0,0,0,.01.14.63-.17,1.83-.22,2.03,0,.05-.02.1-.05.14-.19.26-1.02.35-1.27.37-.16.01-.27.06-.31.12-.01.02-.02.04-.02.06.39,0,1.3,0,1.8-.07.55-.08.79-.66.79-.67v-.02s.68-1.21.92-2.26c0-.02,0-.04,0-.06,0-.02,0-.03.02-.04.05-.27.07-.53.04-.75-.02-.12.07-.23.19-.24.12-.02.23.07.24.19.03.23.02.48-.02.74.28.07.8.2,1.37.33-.1-.32-.04-.6.04-.81.23-.55.87-.97,1.1-.97.12,0,.22.1.22.22,0,.11-.09.21-.2.22-.12.04-.62.36-.75.8-.09.3.02.59.31.89,1.02,1.05,2.42,1.19,2.43,1.19l.46.04-.33.33s-.68.67-2.16.77c-.64.04-.84.21-.91.31,0,.02-.02.03-.02.04.78-.06,3.35-.26,3.96-.37.37-.06.41-.18.48-.38.04-.12.09-.26.2-.38.05-.06.1-.1.15-.15.12-.1.21-.19.18-.38-.01-.02-.02-.05-.02-.08-.04-.12-.12-.29-.27-.51-.06-.1-.04-.23.06-.3.1-.07.23-.04.3.06.13.21.22.38.28.53.95.04,2.06-.57,2.66-1.2.37-.39.54-.77.49-1.07ZM3.78,3.58c-.4,0-.73-.28-.73-.62s.33-.62.73-.62.73.28.73.62-.33.62-.73.62Z"/>
      <path class="cls-1" d="M3.78,2.78c-.17,0-.3.1-.3.18s.13.18.3.18.3-.1.3-.18-.12-.18-.3-.18Z"/>
      <path class="cls-1" d="M13.14,12.9c-.65.04-.85.22-.91.31,0,.01-.02.03-.02.04.3-.02.87-.06,1.52-.12-.12-.08-.23-.17-.35-.27-.06.01-.14.02-.24.03Z"/>
      <path class="cls-1" d="M21.73,11.28c-.08.23-.22.47-.42.71,1.07.5,2.06,1.89,1.92,3.36-.17,1.72-1.41,3.67-4.37,3.52-1.11-.06-1.87-.41-2.53-.73-.86-.4-1.61-.75-2.97-.48-.84.17-1.38.54-1.72.92.73-.62,1.79-.83,2.88-.48.3.1.65.23,1.05.39,1.56.61,3.69,1.45,5.43.82,1.64-.59,3.39-2.21,2.94-4.81-.36-2.11-1.68-2.96-2.2-3.22Z"/>
      <path class="cls-1" d="M8.04,10.99c0,.7-.21,1.49-.25,1.65,0,.05-.02.09-.05.14-.19.26-1.02.35-1.27.37-.16.01-.27.06-.31.12-.01.02-.02.04-.02.06.39,0,1.3,0,1.8-.07.41-.06.75-.81.86-1.14-.12-.47-.41-.8-.75-1.13Z"/>
    </g>
  </g>
</svg>