<svg xmlns="http://www.w3.org/2000/svg" xmlns:xlink="http://www.w3.org/1999/xlink" width="1080" zoomAndPan="magnify" viewBox="0 0 810 809.999993" height="1080" preserveAspectRatio="xMidYMid meet" version="1.0"><defs><clipPath id="93061c8783"><path d="M 243 292.410156 L 567 292.410156 L 567 517.410156 L 243 517.410156 Z M 243 292.410156 " clip-rule="nonzero"/></clipPath></defs><g clip-path="url(#93061c8783)"><path fill="#000831" d="M 539.539062 487.746094 L 528.917969 292.628906 L 484.855469 292.628906 L 474.234375 487.746094 L 469.910156 487.746094 L 469.910156 335.503906 L 403.429688 389.792969 L 403.429688 335.503906 L 336.945312 389.792969 L 336.945312 335.503906 L 270.460938 389.792969 L 270.460938 487.746094 L 243.019531 487.746094 L 243.019531 517.839844 L 566.976562 517.839844 L 566.976562 487.746094 C 566.976562 487.746094 539.539062 487.746094 539.539062 487.746094 Z M 320.027344 458.242188 L 299.078125 458.242188 L 299.078125 423.128906 L 320.027344 423.128906 Z M 362.515625 458.242188 L 341.5625 458.242188 L 341.5625 423.128906 L 362.515625 423.128906 Z M 405 458.242188 L 384.050781 458.242188 L 384.050781 423.128906 L 405 423.128906 Z M 405 458.242188 " fill-opacity="1" fill-rule="nonzero"/></g></svg>