<svg xmlns="http://www.w3.org/2000/svg" xmlns:xlink="http://www.w3.org/1999/xlink" width="1080" zoomAndPan="magnify" viewBox="0 0 810 809.999993" height="1080" preserveAspectRatio="xMidYMid meet" version="1.0"><defs><clipPath id="09a4335666"><path d="M 243 257 L 567 257 L 567 553 L 243 553 Z M 243 257 " clip-rule="nonzero"/></clipPath></defs><g clip-path="url(#09a4335666)"><path fill="#000831" d="M 566.960938 538.488281 L 566.960938 550.75 C 566.960938 551.902344 566.019531 552.84375 564.867188 552.84375 L 245.0625 552.84375 C 243.914062 552.84375 242.96875 551.902344 242.96875 550.75 L 242.96875 538.488281 C 242.96875 537.339844 243.914062 536.398438 245.0625 536.398438 L 564.867188 536.398438 C 566.015625 536.398438 566.960938 537.339844 566.960938 538.488281 Z M 477.429688 356.160156 L 553.84375 356.160156 L 553.84375 525.144531 L 477.429688 525.144531 Z M 523.714844 394.28125 C 523.714844 395.722656 524.894531 396.902344 526.335938 396.902344 L 541.183594 396.902344 C 542.625 396.902344 543.804688 395.722656 543.804688 394.28125 L 543.804688 379.433594 C 543.804688 377.992188 542.625 376.808594 541.183594 376.808594 L 526.335938 376.808594 C 524.894531 376.808594 523.714844 377.992188 523.714844 379.433594 Z M 523.714844 430.144531 C 523.714844 431.585938 524.894531 432.765625 526.335938 432.765625 L 541.183594 432.765625 C 542.625 432.765625 543.804688 431.585938 543.804688 430.144531 L 543.804688 415.296875 C 543.804688 413.855469 542.625 412.675781 541.183594 412.675781 L 526.335938 412.675781 C 524.894531 412.675781 523.714844 413.855469 523.714844 415.296875 Z M 523.714844 466.007812 C 523.714844 467.449219 524.894531 468.632812 526.335938 468.632812 L 541.183594 468.632812 C 542.625 468.632812 543.804688 467.449219 543.804688 466.007812 L 543.804688 451.160156 C 543.804688 449.71875 542.625 448.539062 541.183594 448.539062 L 526.335938 448.539062 C 524.894531 448.539062 523.714844 449.71875 523.714844 451.160156 Z M 523.714844 501.871094 C 523.714844 503.316406 524.894531 504.496094 526.335938 504.496094 L 541.183594 504.496094 C 542.625 504.496094 543.804688 503.316406 543.804688 501.871094 L 543.804688 487.023438 C 543.804688 485.582031 542.625 484.402344 541.183594 484.402344 L 526.335938 484.402344 C 524.894531 484.402344 523.714844 485.582031 523.714844 487.023438 Z M 487.464844 394.28125 C 487.464844 395.722656 488.644531 396.902344 490.085938 396.902344 L 504.933594 396.902344 C 506.375 396.902344 507.558594 395.722656 507.558594 394.28125 L 507.558594 379.433594 C 507.558594 377.992188 506.375 376.808594 504.933594 376.808594 L 490.085938 376.808594 C 488.644531 376.808594 487.464844 377.992188 487.464844 379.433594 Z M 487.464844 430.144531 C 487.464844 431.585938 488.644531 432.765625 490.085938 432.765625 L 504.933594 432.765625 C 506.375 432.765625 507.558594 431.585938 507.558594 430.144531 L 507.558594 415.296875 C 507.558594 413.855469 506.375 412.675781 504.933594 412.675781 L 490.085938 412.675781 C 488.644531 412.675781 487.464844 413.855469 487.464844 415.296875 Z M 487.464844 466.007812 C 487.464844 467.449219 488.644531 468.632812 490.085938 468.632812 L 504.933594 468.632812 C 506.375 468.632812 507.558594 467.449219 507.558594 466.007812 L 507.558594 451.160156 C 507.558594 449.71875 506.375 448.539062 504.933594 448.539062 L 490.085938 448.539062 C 488.644531 448.539062 487.464844 449.71875 487.464844 451.160156 Z M 487.464844 501.871094 C 487.464844 503.316406 488.644531 504.496094 490.085938 504.496094 L 504.933594 504.496094 C 506.375 504.496094 507.558594 503.316406 507.558594 501.871094 L 507.558594 487.023438 C 507.558594 485.582031 506.375 484.402344 504.933594 484.402344 L 490.085938 484.402344 C 488.644531 484.402344 487.464844 485.582031 487.464844 487.023438 Z M 466.175781 277.601562 L 479.292969 257.152344 L 330.636719 257.152344 L 343.753906 277.601562 Z M 439.5 525.144531 L 439.5 483.3125 L 410.589844 483.3125 L 410.589844 525.144531 L 399.339844 525.144531 L 399.339844 483.3125 L 370.429688 483.3125 L 370.429688 525.144531 L 343.753906 525.144531 L 343.753906 288.855469 L 466.175781 288.855469 L 466.175781 525.144531 Z M 431.167969 321.617188 C 431.167969 323.0625 432.347656 324.242188 433.792969 324.242188 L 448.636719 324.242188 C 450.082031 324.242188 451.261719 323.0625 451.261719 321.617188 L 451.261719 306.773438 C 451.261719 305.328125 450.082031 304.148438 448.636719 304.148438 L 433.792969 304.148438 C 432.347656 304.148438 431.167969 305.328125 431.167969 306.773438 Z M 431.167969 359.199219 C 431.167969 360.640625 432.347656 361.820312 433.792969 361.820312 L 448.636719 361.820312 C 450.082031 361.820312 451.261719 360.640625 451.261719 359.199219 L 451.261719 344.351562 C 451.261719 342.910156 450.082031 341.726562 448.636719 341.726562 L 433.792969 341.726562 C 432.347656 341.726562 431.167969 342.910156 431.167969 344.351562 Z M 431.167969 396.777344 C 431.167969 398.21875 432.347656 399.398438 433.792969 399.398438 L 448.636719 399.398438 C 450.082031 399.398438 451.261719 398.21875 451.261719 396.777344 L 451.261719 381.929688 C 451.261719 380.488281 450.082031 379.308594 448.636719 379.308594 L 433.792969 379.308594 C 432.347656 379.308594 431.167969 380.488281 431.167969 381.929688 Z M 431.167969 434.355469 C 431.167969 435.796875 432.347656 436.976562 433.792969 436.976562 L 448.636719 436.976562 C 450.082031 436.976562 451.261719 435.796875 451.261719 434.355469 L 451.261719 419.507812 C 451.261719 418.066406 450.082031 416.886719 448.636719 416.886719 L 433.792969 416.886719 C 432.347656 416.886719 431.167969 418.066406 431.167969 419.507812 Z M 394.917969 321.617188 C 394.917969 323.0625 396.097656 324.242188 397.542969 324.242188 L 412.386719 324.242188 C 413.832031 324.242188 415.011719 323.0625 415.011719 321.617188 L 415.011719 306.773438 C 415.011719 305.328125 413.832031 304.148438 412.386719 304.148438 L 397.542969 304.148438 C 396.097656 304.148438 394.917969 305.328125 394.917969 306.773438 Z M 394.917969 359.199219 C 394.917969 360.640625 396.097656 361.820312 397.542969 361.820312 L 412.386719 361.820312 C 413.832031 361.820312 415.011719 360.640625 415.011719 359.199219 L 415.011719 344.351562 C 415.011719 342.910156 413.832031 341.726562 412.386719 341.726562 L 397.542969 341.726562 C 396.097656 341.726562 394.917969 342.910156 394.917969 344.351562 Z M 394.917969 396.777344 C 394.917969 398.21875 396.097656 399.398438 397.542969 399.398438 L 412.386719 399.398438 C 413.832031 399.398438 415.011719 398.21875 415.011719 396.777344 L 415.011719 381.929688 C 415.011719 380.488281 413.832031 379.308594 412.386719 379.308594 L 397.542969 379.308594 C 396.097656 379.308594 394.917969 380.488281 394.917969 381.929688 Z M 394.917969 434.355469 C 394.917969 435.796875 396.097656 436.976562 397.542969 436.976562 L 412.386719 436.976562 C 413.832031 436.976562 415.011719 435.796875 415.011719 434.355469 L 415.011719 419.507812 C 415.011719 418.066406 413.832031 416.886719 412.386719 416.886719 L 397.542969 416.886719 C 396.097656 416.886719 394.917969 418.066406 394.917969 419.507812 Z M 358.667969 321.617188 C 358.667969 323.0625 359.847656 324.242188 361.292969 324.242188 L 376.136719 324.242188 C 377.582031 324.242188 378.761719 323.0625 378.761719 321.617188 L 378.761719 306.773438 C 378.761719 305.328125 377.582031 304.148438 376.136719 304.148438 L 361.292969 304.148438 C 359.847656 304.148438 358.667969 305.328125 358.667969 306.773438 Z M 358.667969 359.199219 C 358.667969 360.640625 359.847656 361.820312 361.292969 361.820312 L 376.136719 361.820312 C 377.582031 361.820312 378.761719 360.640625 378.761719 359.199219 L 378.761719 344.351562 C 378.761719 342.910156 377.582031 341.726562 376.136719 341.726562 L 361.292969 341.726562 C 359.847656 341.726562 358.667969 342.910156 358.667969 344.351562 Z M 358.667969 396.777344 C 358.667969 398.21875 359.847656 399.398438 361.292969 399.398438 L 376.136719 399.398438 C 377.582031 399.398438 378.761719 398.21875 378.761719 396.777344 L 378.761719 381.929688 C 378.761719 380.488281 377.582031 379.308594 376.136719 379.308594 L 361.292969 379.308594 C 359.847656 379.308594 358.667969 380.488281 358.667969 381.929688 Z M 361.292969 436.976562 L 376.136719 436.976562 C 377.582031 436.976562 378.761719 435.796875 378.761719 434.355469 L 378.761719 419.507812 C 378.761719 418.066406 377.582031 416.886719 376.136719 416.886719 L 361.292969 416.886719 C 359.847656 416.886719 358.667969 418.066406 358.667969 419.507812 L 358.667969 434.355469 C 358.667969 435.796875 359.847656 436.976562 361.292969 436.976562 Z M 446.164062 472.0625 C 447.898438 472.0625 449.316406 470.644531 449.316406 468.910156 L 449.316406 460.660156 C 449.316406 458.925781 447.898438 457.507812 446.164062 457.507812 L 363.765625 457.507812 C 362.03125 457.507812 360.613281 458.925781 360.613281 460.660156 L 360.613281 468.910156 C 360.613281 470.644531 362.03125 472.0625 363.765625 472.0625 Z M 566.960938 324.460938 L 477.429688 324.460938 L 477.429688 344.910156 L 553.84375 344.910156 Z M 332.5 344.910156 L 332.5 324.460938 L 242.96875 324.460938 L 256.085938 344.910156 Z M 256.085938 356.160156 L 332.5 356.160156 L 332.5 525.144531 L 256.085938 525.144531 Z M 302.371094 394.28125 C 302.371094 395.722656 303.554688 396.902344 304.996094 396.902344 L 319.84375 396.902344 C 321.285156 396.902344 322.464844 395.722656 322.464844 394.28125 L 322.464844 379.433594 C 322.464844 377.992188 321.285156 376.808594 319.84375 376.808594 L 304.996094 376.808594 C 303.554688 376.808594 302.371094 377.992188 302.371094 379.433594 Z M 302.371094 430.144531 C 302.371094 431.585938 303.554688 432.765625 304.996094 432.765625 L 319.84375 432.765625 C 321.285156 432.765625 322.464844 431.585938 322.464844 430.144531 L 322.464844 415.296875 C 322.464844 413.855469 321.285156 412.675781 319.84375 412.675781 L 304.996094 412.675781 C 303.554688 412.675781 302.371094 413.855469 302.371094 415.296875 Z M 302.371094 466.007812 C 302.371094 467.449219 303.554688 468.632812 304.996094 468.632812 L 319.84375 468.632812 C 321.285156 468.632812 322.464844 467.449219 322.464844 466.007812 L 322.464844 451.160156 C 322.464844 449.71875 321.285156 448.539062 319.84375 448.539062 L 304.996094 448.539062 C 303.554688 448.539062 302.371094 449.71875 302.371094 451.160156 Z M 302.371094 501.871094 C 302.371094 503.316406 303.554688 504.496094 304.996094 504.496094 L 319.84375 504.496094 C 321.285156 504.496094 322.464844 503.316406 322.464844 501.871094 L 322.464844 487.023438 C 322.464844 485.582031 321.285156 484.402344 319.84375 484.402344 L 304.996094 484.402344 C 303.554688 484.402344 302.371094 485.582031 302.371094 487.023438 Z M 266.125 394.28125 C 266.125 395.722656 267.304688 396.902344 268.746094 396.902344 L 283.59375 396.902344 C 285.035156 396.902344 286.214844 395.722656 286.214844 394.28125 L 286.214844 379.433594 C 286.214844 377.992188 285.035156 376.808594 283.59375 376.808594 L 268.746094 376.808594 C 267.304688 376.808594 266.125 377.992188 266.125 379.433594 Z M 266.125 430.144531 C 266.125 431.585938 267.304688 432.765625 268.746094 432.765625 L 283.59375 432.765625 C 285.035156 432.765625 286.214844 431.585938 286.214844 430.144531 L 286.214844 415.296875 C 286.214844 413.855469 285.035156 412.675781 283.59375 412.675781 L 268.746094 412.675781 C 267.304688 412.675781 266.125 413.855469 266.125 415.296875 Z M 266.125 466.007812 C 266.125 467.449219 267.304688 468.632812 268.746094 468.632812 L 283.59375 468.632812 C 285.035156 468.632812 286.214844 467.449219 286.214844 466.007812 L 286.214844 451.160156 C 286.214844 449.71875 285.035156 448.539062 283.59375 448.539062 L 268.746094 448.539062 C 267.304688 448.539062 266.125 449.71875 266.125 451.160156 Z M 266.125 501.871094 C 266.125 503.316406 267.304688 504.496094 268.746094 504.496094 L 283.59375 504.496094 C 285.035156 504.496094 286.214844 503.316406 286.214844 501.871094 L 286.214844 487.023438 C 286.214844 485.582031 285.035156 484.402344 283.59375 484.402344 L 268.746094 484.402344 C 267.304688 484.402344 266.125 485.582031 266.125 487.023438 Z M 266.125 501.871094 " fill-opacity="1" fill-rule="nonzero"/></g></svg>