<svg xmlns="http://www.w3.org/2000/svg" xmlns:xlink="http://www.w3.org/1999/xlink" width="1080" zoomAndPan="magnify" viewBox="0 0 810 809.999993" height="1080" preserveAspectRatio="xMidYMid meet" version="1.0"><path fill="#000831" d="M 311.257812 259.167969 C 282.550781 259.167969 259.167969 282.550781 259.167969 311.257812 C 259.167969 323.847656 263.664062 335.410156 271.132812 344.425781 L 344.882812 271.53125 C 335.800781 263.828125 324.0625 259.167969 311.257812 259.167969 Z M 352.128906 279.027344 L 278.550781 351.75 C 287.5 358.996094 298.882812 363.347656 311.257812 363.347656 C 339.964844 363.347656 363.347656 339.964844 363.347656 311.257812 C 363.347656 299.101562 359.144531 287.90625 352.128906 279.027344 Z M 352.128906 279.027344 " fill-opacity="1" fill-rule="nonzero"/><path fill="#000831" d="M 483.304688 282.972656 C 465.976562 282.972656 448.648438 289.589844 435.414062 302.820312 L 372.277344 365.960938 L 467.148438 462.621094 L 531.183594 398.585938 C 557.644531 372.125 557.644531 329.285156 531.183594 302.820312 C 517.949219 289.589844 500.628906 282.972656 483.304688 282.972656 Z M 364.910156 373.324219 L 302.820312 435.417969 C 276.355469 461.878906 276.355469 504.71875 302.820312 531.183594 C 329.285156 557.644531 372.125 557.644531 398.585938 531.183594 L 459.78125 469.988281 Z M 374.617188 413.65625 C 375.308594 413.65625 375.976562 413.789062 376.617188 414.054688 C 377.257812 414.320312 377.820312 414.699219 378.308594 415.191406 C 378.550781 415.433594 378.769531 415.695312 378.957031 415.980469 C 379.148438 416.265625 379.308594 416.566406 379.4375 416.878906 C 379.570312 417.195312 379.667969 417.523438 379.734375 417.859375 C 379.800781 418.191406 379.835938 418.53125 379.835938 418.875 C 379.835938 419.214844 379.800781 419.554688 379.734375 419.890625 C 379.667969 420.226562 379.570312 420.550781 379.4375 420.867188 C 379.308594 421.183594 379.148438 421.484375 378.957031 421.765625 C 378.769531 422.050781 378.550781 422.316406 378.308594 422.558594 L 348.308594 452.558594 C 348.066406 452.800781 347.800781 453.015625 347.519531 453.207031 C 347.234375 453.398438 346.933594 453.558594 346.617188 453.6875 C 346.300781 453.820312 345.976562 453.917969 345.640625 453.984375 C 345.304688 454.050781 344.964844 454.085938 344.625 454.085938 C 344.28125 454.085938 343.945312 454.050781 343.609375 453.984375 C 343.273438 453.917969 342.949219 453.820312 342.632812 453.6875 C 342.316406 453.558594 342.015625 453.398438 341.730469 453.207031 C 341.445312 453.015625 341.183594 452.800781 340.941406 452.558594 C 340.699219 452.316406 340.484375 452.054688 340.292969 451.769531 C 340.105469 451.484375 339.945312 451.183594 339.8125 450.871094 C 339.683594 450.554688 339.582031 450.226562 339.515625 449.890625 C 339.449219 449.558594 339.417969 449.21875 339.417969 448.875 C 339.417969 448.535156 339.449219 448.195312 339.515625 447.859375 C 339.582031 447.523438 339.683594 447.199219 339.8125 446.882812 C 339.945312 446.566406 340.105469 446.265625 340.292969 445.984375 C 340.484375 445.699219 340.699219 445.433594 340.941406 445.195312 L 370.933594 415.191406 C 371.421875 414.699219 371.984375 414.320312 372.621094 414.054688 C 373.261719 413.789062 373.925781 413.65625 374.617188 413.65625 Z M 374.617188 413.65625 " fill-opacity="1" fill-rule="nonzero"/></svg>