<svg xmlns="http://www.w3.org/2000/svg" xmlns:xlink="http://www.w3.org/1999/xlink" width="1080" zoomAndPan="magnify" viewBox="0 0 810 809.999993" height="1080" preserveAspectRatio="xMidYMid meet" version="1.0"><path fill="#000831" d="M 439.617188 420.84375 L 442.285156 417.085938 L 456.539062 414.011719 C 465.34375 412.113281 473.195312 407.132812 478.660156 399.96875 C 554.351562 300.726562 546.472656 262.253906 539.28125 250.085938 C 537.675781 247.363281 533.804688 247.167969 531.875 249.667969 L 418.660156 396.261719 Z M 439.617188 420.84375 " fill-opacity="1" fill-rule="nonzero"/><path fill="#000831" d="M 389.550781 431.136719 L 309.753906 534.460938 C 306.304688 538.929688 305.152344 544.757812 306.652344 550.195312 L 307.308594 552.570312 C 309.113281 559.144531 314.488281 564.125 321.179688 565.433594 C 328.097656 566.78125 335.167969 563.957031 339.253906 558.207031 L 410.34375 458.140625 Z M 389.550781 431.136719 " fill-opacity="1" fill-rule="nonzero"/><path fill="#000831" d="M 363.148438 386.886719 L 352.28125 389.652344 C 342.230469 392.210938 331.570312 390.324219 323.015625 384.476562 C 318.789062 381.585938 315.230469 377.832031 312.578125 373.460938 L 256.917969 281.792969 C 255.691406 279.773438 256.25 277.148438 258.195312 275.804688 C 260.097656 274.484375 262.691406 274.828125 264.183594 276.589844 L 321.402344 344.179688 C 323.417969 346.566406 327.035156 346.765625 329.3125 344.613281 C 331.257812 342.765625 331.566406 339.785156 330.035156 337.585938 L 279.875 265.488281 C 278.707031 263.808594 278.992188 261.519531 280.542969 260.179688 C 282.1875 258.761719 284.664062 258.902344 286.132812 260.507812 L 344.046875 323.738281 C 345.964844 325.832031 349.175781 326.105469 351.425781 324.375 C 353.820312 322.53125 354.257812 319.09375 352.394531 316.710938 L 301.867188 251.957031 C 300.097656 249.691406 300.554688 246.410156 302.882812 244.714844 C 304.90625 243.238281 307.703125 243.441406 309.492188 245.195312 L 386.226562 320.546875 C 390.320312 324.566406 393.25 329.613281 394.707031 335.160156 C 397.132812 344.371094 395.292969 354.183594 389.691406 361.902344 L 385.667969 367.453125 L 528.265625 534.28125 C 532.117188 538.78125 533.613281 544.828125 532.316406 550.59375 C 530.597656 558.246094 524.296875 564.027344 516.511719 565.109375 L 513.070312 565.589844 C 506.359375 566.519531 499.664062 563.789062 495.53125 558.429688 Z M 363.148438 386.886719 " fill-opacity="1" fill-rule="nonzero"/></svg>