<svg xmlns="http://www.w3.org/2000/svg" xmlns:xlink="http://www.w3.org/1999/xlink" width="1080" zoomAndPan="magnify" viewBox="0 0 810 809.999993" height="1080" preserveAspectRatio="xMidYMid meet" version="1.0"><defs><clipPath id="9c7f19ec0e"><path d="M 333 268.3125 L 561 268.3125 L 561 350 L 333 350 Z M 333 268.3125 " clip-rule="nonzero"/></clipPath></defs><path fill="#000831" d="M 498.65625 389.6875 C 494.351562 389.6875 491.0625 392.976562 491.0625 397.28125 L 491.0625 422.59375 C 491.0625 426.894531 494.351562 430.1875 498.65625 430.1875 L 523.96875 430.1875 C 528.273438 430.1875 531.5625 426.894531 531.5625 422.59375 L 531.5625 397.28125 C 531.5625 392.976562 528.273438 389.6875 523.96875 389.6875 Z M 498.65625 389.6875 " fill-opacity="1" fill-rule="nonzero"/><g clip-path="url(#9c7f19ec0e)"><path fill="#000831" d="M 354.121094 349.1875 L 355.132812 349.1875 C 361.210938 349.1875 366.523438 346.65625 370.070312 342.351562 C 373.867188 346.402344 379.179688 349.1875 385.003906 349.1875 L 386.015625 349.1875 C 392.089844 349.1875 397.40625 346.65625 400.949219 342.351562 C 405 346.65625 410.316406 349.1875 416.390625 349.1875 L 417.402344 349.1875 C 423.476562 349.1875 428.792969 346.65625 432.335938 342.351562 C 436.132812 346.402344 441.449219 349.1875 447.273438 349.1875 L 448.285156 349.1875 C 454.359375 349.1875 459.675781 346.65625 463.21875 342.351562 C 467.015625 346.402344 472.332031 349.1875 478.152344 349.1875 L 479.164062 349.1875 C 485.242188 349.1875 490.554688 346.65625 494.101562 342.351562 C 497.898438 346.402344 503.210938 349.1875 509.035156 349.1875 L 510.046875 349.1875 C 516.121094 349.1875 521.4375 346.65625 524.980469 342.351562 C 528.777344 346.402344 534.09375 349.1875 539.914062 349.1875 L 540.929688 349.1875 C 552.066406 349.1875 560.925781 340.074219 560.925781 329.1875 C 560.925781 329.1875 560.925781 311.21875 560.925781 311.21875 C 560.925781 309.953125 560.417969 308.6875 559.40625 307.671875 L 524.222656 272.488281 C 521.691406 269.957031 517.894531 268.4375 514.097656 268.4375 L 380.699219 268.4375 C 376.902344 268.4375 373.359375 269.957031 370.574219 272.488281 C 370.574219 272.488281 335.390625 307.671875 335.390625 307.671875 C 334.378906 308.6875 333.871094 309.953125 333.871094 311.21875 L 333.871094 329.1875 C 334.125 340.074219 343.238281 349.1875 354.121094 349.1875 Z M 377.914062 279.578125 C 378.675781 278.816406 379.6875 278.3125 380.699219 278.3125 L 515.109375 278.3125 C 516.121094 278.3125 517.132812 278.816406 517.894531 279.578125 L 544.472656 306.15625 L 351.335938 306.15625 Z M 377.914062 279.578125 " fill-opacity="1" fill-rule="nonzero"/></g><path fill="#000831" d="M 361.96875 523.84375 C 361.96875 524.421875 361.941406 525 361.882812 525.578125 C 361.828125 526.15625 361.742188 526.730469 361.628906 527.300781 C 361.515625 527.867188 361.375 528.429688 361.207031 528.984375 C 361.039062 529.539062 360.84375 530.085938 360.621094 530.621094 C 360.398438 531.160156 360.148438 531.683594 359.875 532.195312 C 359.601562 532.707031 359.304688 533.203125 358.984375 533.6875 C 358.660156 534.167969 358.316406 534.632812 357.945312 535.082031 C 357.578125 535.53125 357.1875 535.960938 356.777344 536.371094 C 356.367188 536.78125 355.9375 537.171875 355.492188 537.539062 C 355.042969 537.90625 354.578125 538.253906 354.09375 538.574219 C 353.613281 538.898438 353.113281 539.195312 352.601562 539.46875 C 352.089844 539.742188 351.566406 539.988281 351.03125 540.210938 C 350.496094 540.433594 349.949219 540.628906 349.394531 540.796875 C 348.839844 540.964844 348.277344 541.105469 347.707031 541.21875 C 347.136719 541.332031 346.5625 541.417969 345.988281 541.476562 C 345.410156 541.53125 344.832031 541.5625 344.25 541.5625 C 343.667969 541.5625 343.089844 541.53125 342.511719 541.476562 C 341.9375 541.417969 341.363281 541.332031 340.792969 541.21875 C 340.222656 541.105469 339.660156 540.964844 339.105469 540.796875 C 338.550781 540.628906 338.003906 540.433594 337.46875 540.210938 C 336.933594 539.988281 336.410156 539.742188 335.898438 539.46875 C 335.386719 539.195312 334.886719 538.898438 334.40625 538.574219 C 333.921875 538.253906 333.457031 537.90625 333.007812 537.539062 C 332.5625 537.171875 332.132812 536.78125 331.722656 536.371094 C 331.3125 535.960938 330.921875 535.53125 330.554688 535.082031 C 330.183594 534.632812 329.839844 534.167969 329.515625 533.6875 C 329.195312 533.203125 328.898438 532.707031 328.625 532.195312 C 328.351562 531.683594 328.101562 531.160156 327.878906 530.621094 C 327.65625 530.085938 327.460938 529.539062 327.292969 528.984375 C 327.125 528.429688 326.984375 527.867188 326.871094 527.300781 C 326.757812 526.730469 326.671875 526.15625 326.617188 525.578125 C 326.558594 525 326.53125 524.421875 326.53125 523.84375 C 326.53125 523.261719 326.558594 522.683594 326.617188 522.105469 C 326.671875 521.527344 326.757812 520.953125 326.871094 520.386719 C 326.984375 519.816406 327.125 519.253906 327.292969 518.699219 C 327.460938 518.144531 327.65625 517.597656 327.878906 517.0625 C 328.101562 516.523438 328.351562 516 328.625 515.488281 C 328.898438 514.976562 329.195312 514.480469 329.515625 514 C 329.839844 513.515625 330.183594 513.050781 330.554688 512.601562 C 330.921875 512.152344 331.3125 511.722656 331.722656 511.3125 C 332.132812 510.902344 332.5625 510.511719 333.007812 510.144531 C 333.457031 509.777344 333.921875 509.433594 334.40625 509.109375 C 334.886719 508.789062 335.386719 508.488281 335.898438 508.214844 C 336.410156 507.941406 336.933594 507.695312 337.46875 507.472656 C 338.003906 507.25 338.550781 507.054688 339.105469 506.886719 C 339.660156 506.71875 340.222656 506.578125 340.792969 506.464844 C 341.363281 506.351562 341.9375 506.265625 342.511719 506.207031 C 343.089844 506.152344 343.667969 506.125 344.25 506.125 C 344.832031 506.125 345.410156 506.152344 345.988281 506.207031 C 346.5625 506.265625 347.136719 506.351562 347.707031 506.464844 C 348.277344 506.578125 348.839844 506.71875 349.394531 506.886719 C 349.949219 507.054688 350.496094 507.25 351.03125 507.472656 C 351.566406 507.695312 352.089844 507.941406 352.601562 508.214844 C 353.113281 508.488281 353.613281 508.789062 354.09375 509.109375 C 354.578125 509.433594 355.042969 509.777344 355.492188 510.144531 C 355.9375 510.511719 356.367188 510.902344 356.777344 511.3125 C 357.1875 511.722656 357.578125 512.152344 357.945312 512.601562 C 358.316406 513.050781 358.660156 513.515625 358.984375 514 C 359.304688 514.480469 359.601562 514.976562 359.875 515.488281 C 360.148438 516 360.398438 516.523438 360.621094 517.0625 C 360.84375 517.597656 361.039062 518.144531 361.207031 518.699219 C 361.375 519.253906 361.515625 519.816406 361.628906 520.386719 C 361.742188 520.953125 361.828125 521.527344 361.882812 522.105469 C 361.941406 522.683594 361.96875 523.261719 361.96875 523.84375 Z M 361.96875 523.84375 " fill-opacity="1" fill-rule="nonzero"/><path fill="#000831" d="M 425.25 523.84375 C 425.25 524.421875 425.222656 525 425.164062 525.578125 C 425.109375 526.15625 425.023438 526.730469 424.910156 527.300781 C 424.796875 527.867188 424.65625 528.429688 424.488281 528.984375 C 424.320312 529.539062 424.125 530.085938 423.902344 530.621094 C 423.679688 531.160156 423.429688 531.683594 423.15625 532.195312 C 422.882812 532.707031 422.585938 533.203125 422.265625 533.6875 C 421.941406 534.167969 421.597656 534.632812 421.226562 535.082031 C 420.859375 535.53125 420.46875 535.960938 420.058594 536.371094 C 419.648438 536.78125 419.21875 537.171875 418.773438 537.539062 C 418.324219 537.90625 417.859375 538.253906 417.375 538.574219 C 416.894531 538.898438 416.394531 539.195312 415.882812 539.46875 C 415.371094 539.742188 414.847656 539.988281 414.3125 540.210938 C 413.777344 540.433594 413.230469 540.628906 412.675781 540.796875 C 412.121094 540.964844 411.558594 541.105469 410.988281 541.21875 C 410.417969 541.332031 409.84375 541.417969 409.269531 541.476562 C 408.691406 541.53125 408.113281 541.5625 407.53125 541.5625 C 406.949219 541.5625 406.371094 541.53125 405.792969 541.476562 C 405.21875 541.417969 404.644531 541.332031 404.074219 541.21875 C 403.503906 541.105469 402.941406 540.964844 402.386719 540.796875 C 401.832031 540.628906 401.285156 540.433594 400.75 540.210938 C 400.214844 539.988281 399.691406 539.742188 399.179688 539.46875 C 398.667969 539.195312 398.167969 538.898438 397.6875 538.574219 C 397.203125 538.253906 396.738281 537.90625 396.289062 537.539062 C 395.84375 537.171875 395.414062 536.78125 395.003906 536.371094 C 394.59375 535.960938 394.203125 535.53125 393.835938 535.082031 C 393.464844 534.632812 393.121094 534.167969 392.796875 533.6875 C 392.476562 533.203125 392.179688 532.707031 391.90625 532.195312 C 391.632812 531.683594 391.382812 531.160156 391.160156 530.621094 C 390.9375 530.085938 390.742188 529.539062 390.574219 528.984375 C 390.40625 528.429688 390.265625 527.867188 390.152344 527.300781 C 390.039062 526.730469 389.953125 526.15625 389.898438 525.578125 C 389.839844 525 389.8125 524.421875 389.8125 523.84375 C 389.8125 523.261719 389.839844 522.683594 389.898438 522.105469 C 389.953125 521.527344 390.039062 520.953125 390.152344 520.386719 C 390.265625 519.816406 390.40625 519.253906 390.574219 518.699219 C 390.742188 518.144531 390.9375 517.597656 391.160156 517.0625 C 391.382812 516.523438 391.632812 516 391.90625 515.488281 C 392.179688 514.976562 392.476562 514.480469 392.796875 514 C 393.121094 513.515625 393.464844 513.050781 393.835938 512.601562 C 394.203125 512.152344 394.59375 511.722656 395.003906 511.3125 C 395.414062 510.902344 395.84375 510.511719 396.289062 510.144531 C 396.738281 509.777344 397.203125 509.433594 397.6875 509.109375 C 398.167969 508.789062 398.667969 508.488281 399.179688 508.214844 C 399.691406 507.941406 400.214844 507.695312 400.75 507.472656 C 401.285156 507.25 401.832031 507.054688 402.386719 506.886719 C 402.941406 506.71875 403.503906 506.578125 404.074219 506.464844 C 404.644531 506.351562 405.21875 506.265625 405.792969 506.207031 C 406.371094 506.152344 406.949219 506.125 407.53125 506.125 C 408.113281 506.125 408.691406 506.152344 409.269531 506.207031 C 409.84375 506.265625 410.417969 506.351562 410.988281 506.464844 C 411.558594 506.578125 412.121094 506.71875 412.675781 506.886719 C 413.230469 507.054688 413.777344 507.25 414.3125 507.472656 C 414.847656 507.695312 415.371094 507.941406 415.882812 508.214844 C 416.394531 508.488281 416.894531 508.789062 417.375 509.109375 C 417.859375 509.433594 418.324219 509.777344 418.773438 510.144531 C 419.21875 510.511719 419.648438 510.902344 420.058594 511.3125 C 420.46875 511.722656 420.859375 512.152344 421.226562 512.601562 C 421.597656 513.050781 421.941406 513.515625 422.265625 514 C 422.585938 514.480469 422.882812 514.976562 423.15625 515.488281 C 423.429688 516 423.679688 516.523438 423.902344 517.0625 C 424.125 517.597656 424.320312 518.144531 424.488281 518.699219 C 424.65625 519.253906 424.796875 519.816406 424.910156 520.386719 C 425.023438 520.953125 425.109375 521.527344 425.164062 522.105469 C 425.222656 522.683594 425.25 523.261719 425.25 523.84375 Z M 425.25 523.84375 " fill-opacity="1" fill-rule="nonzero"/><path fill="#000831" d="M 298.6875 460.5625 L 283.5 460.5625 C 280.714844 460.5625 278.4375 462.839844 278.4375 465.625 C 278.4375 468.40625 280.714844 470.6875 283.5 470.6875 L 298.6875 470.6875 C 301.472656 470.6875 303.75 468.40625 303.75 465.625 C 303.75 462.839844 301.472656 460.5625 298.6875 460.5625 Z M 298.6875 460.5625 " fill-opacity="1" fill-rule="nonzero"/><path fill="#000831" d="M 296.15625 445.375 C 296.15625 442.589844 293.878906 440.3125 291.09375 440.3125 L 265.78125 440.3125 C 262.996094 440.3125 260.71875 442.589844 260.71875 445.375 C 260.71875 448.15625 262.996094 450.4375 265.78125 450.4375 L 291.09375 450.4375 C 293.878906 450.4375 296.15625 448.15625 296.15625 445.375 Z M 296.15625 445.375 " fill-opacity="1" fill-rule="nonzero"/><path fill="#000831" d="M 344.25 357.539062 L 344.25 399.304688 L 354.375 399.304688 L 354.375 359.3125 L 354.121094 359.3125 C 350.832031 359.3125 347.289062 358.804688 344.25 357.539062 Z M 344.25 357.539062 " fill-opacity="1" fill-rule="nonzero"/><path fill="#000831" d="M 397.40625 389.6875 L 372.09375 389.6875 C 367.789062 389.6875 364.5 392.976562 364.5 397.28125 L 364.5 399.304688 L 405 399.304688 L 405 397.28125 C 405 392.976562 401.710938 389.6875 397.40625 389.6875 Z M 397.40625 389.6875 " fill-opacity="1" fill-rule="nonzero"/><path fill="#000831" d="M 552.824219 447.90625 L 551.8125 447.90625 L 551.8125 357.539062 C 548.773438 358.550781 545.230469 359.3125 541.941406 359.3125 L 541.6875 359.3125 L 541.6875 447.90625 L 480.9375 447.90625 L 480.9375 377.03125 C 480.9375 371.460938 476.382812 366.90625 470.8125 366.90625 L 425.25 366.90625 C 419.679688 366.90625 415.125 371.460938 415.125 377.03125 L 415.125 399.304688 L 434.363281 399.304688 C 441.703125 399.304688 449.042969 402.847656 453.347656 409.175781 C 457.902344 415.25 459.167969 423.351562 457.144531 430.4375 C 457.144531 430.4375 452.839844 444.109375 448.539062 458.03125 L 552.824219 458.03125 C 555.101562 458.03125 556.875 460.308594 556.875 463.09375 L 556.875 468.15625 L 445.246094 468.15625 C 444.234375 471.699219 442.96875 475.242188 442.210938 478.28125 L 561.9375 478.28125 C 564.722656 478.28125 567 476 567 473.21875 L 567 463.09375 C 567 454.738281 560.671875 447.90625 552.824219 447.90625 Z M 552.824219 447.90625 " fill-opacity="1" fill-rule="nonzero"/><path fill="#000831" d="M 445.246094 415 C 442.714844 411.707031 438.917969 409.429688 434.363281 409.429688 L 328.808594 409.429688 C 326.023438 409.429688 323.746094 411.707031 323.746094 414.492188 C 323.746094 417.277344 326.023438 419.554688 328.808594 419.554688 C 328.808594 419.554688 434.363281 419.554688 434.363281 419.554688 C 436.894531 419.554688 438.414062 422.085938 437.90625 424.363281 L 433.601562 438.03125 L 402.722656 438.03125 C 399.9375 438.03125 397.660156 440.3125 397.660156 443.09375 C 397.660156 445.878906 399.9375 448.15625 402.722656 448.15625 L 430.3125 448.15625 L 427.273438 458.28125 L 415.125 458.28125 C 412.339844 458.28125 410.0625 460.5625 410.0625 463.34375 C 410.0625 466.128906 412.339844 468.40625 415.125 468.40625 L 423.984375 468.40625 L 419.429688 483.34375 C 418.921875 484.859375 417.65625 485.875 415.882812 485.875 L 340.707031 485.875 C 339.1875 485.875 337.667969 484.859375 337.164062 483.34375 L 308.054688 397.53125 C 306.535156 392.722656 301.976562 389.6875 297.167969 389.6875 L 288.5625 389.6875 L 288.5625 384.625 C 288.5625 381.839844 286.285156 379.5625 283.5 379.5625 L 258.1875 379.5625 C 249.835938 379.5625 243 386.394531 243 394.75 C 243 403.101562 249.835938 409.9375 258.1875 409.9375 L 283.5 409.9375 C 286.285156 409.9375 288.5625 407.65625 288.5625 404.875 L 288.5625 399.8125 L 297.167969 399.8125 C 297.675781 399.8125 298.433594 400.316406 298.6875 400.824219 L 327.796875 486.632812 C 329.820312 492.203125 334.882812 496 340.960938 496 L 416.136719 496 C 422.210938 496 427.527344 492.203125 429.300781 486.378906 C 429.300781 486.378906 447.523438 427.402344 447.523438 427.402344 C 448.789062 423.097656 447.777344 418.542969 445.246094 415 Z M 445.246094 415 " fill-opacity="1" fill-rule="nonzero"/></svg>