<svg width="90" height="90" viewBox="0 0 90 90" fill="none" xmlns="http://www.w3.org/2000/svg">
<path d="M55.1183 49.7014C56.9427 49.7014 58.4214 51.289 58.4214 53.2489C58.4214 55.2093 56.9427 56.7969 55.1183 56.7969C53.2931 56.7969 51.8148 55.2093 51.8148 53.2489C51.8153 51.289 53.2931 49.7014 55.1183 49.7014ZM55.1183 54.7913C55.911 54.7913 56.5536 54.1019 56.5536 53.2489C56.5536 52.3969 55.911 51.7074 55.1183 51.7074C54.3252 51.7074 53.6826 52.3969 53.6826 53.2489C53.6826 54.1019 54.3252 54.7913 55.1183 54.7913Z" fill="black"/>
<path d="M35.7284 49.7014C37.5523 49.7014 39.031 51.289 39.031 53.2489C39.031 55.2093 37.5523 56.7969 35.7284 56.7969C33.9031 56.7969 32.4253 55.2093 32.4253 53.2489C32.4253 51.289 33.9031 49.7014 35.7284 49.7014ZM35.7284 54.7913C36.5211 54.7913 37.1637 54.1019 37.1637 53.2489C37.1637 52.3969 36.5211 51.7074 35.7284 51.7074C34.9348 51.7074 34.2922 52.3969 34.2922 53.2489C34.2922 54.1019 34.9348 54.7913 35.7284 54.7913Z" fill="black"/>
<path d="M29.4241 35.3333H59.0521C60.1378 35.3333 61.2031 36.2685 61.4204 37.4111L62.6048 42.0554C62.8221 43.1975 63 45.0861 63 46.2519V51.1288C63 52.2947 62.1117 53.249 61.0265 53.249H59.0136C59.0136 50.942 57.2667 49.0648 55.1188 49.0648C52.9709 49.0648 51.2235 50.9415 51.2235 53.249H39.6232C39.6232 50.942 37.8759 49.0648 35.7284 49.0648C33.5801 49.0648 31.8327 50.9415 31.8327 53.249H29.4241C28.3389 53.249 27.451 52.2947 27.451 51.1288V37.4539C27.451 36.2875 28.3389 35.3333 29.4241 35.3333ZM54.7979 44.2788H59.3973L58.6688 42.4249C58.5418 42.1011 58.6825 41.7288 58.9844 41.5923C59.2858 41.4545 59.6332 41.6061 59.7593 41.9304L60.6636 44.2298C61.2743 44.0576 61.6452 43.4443 61.52 42.7168L60.4578 38.1675C60.3095 37.3079 59.5221 36.6037 58.7082 36.6037H54.7983L54.7979 44.2788ZM46.0151 44.2788H53.614V36.6032H46.0151V44.2788ZM37.2323 44.2788H44.8312V36.6032H37.2323V44.2788ZM28.6611 42.6893C28.6611 43.5641 29.3272 44.2788 30.1416 44.2788H36.0488V36.6032H30.1416C29.3272 36.6032 28.6611 37.3193 28.6611 38.1942V42.6893Z" fill="black"/>
</svg>
