<svg xmlns="http://www.w3.org/2000/svg" xmlns:xlink="http://www.w3.org/1999/xlink" width="1080" zoomAndPan="magnify" viewBox="0 0 810 809.999993" height="1080" preserveAspectRatio="xMidYMid meet" version="1.0"><defs><clipPath id="7483160b91"><path d="M 243 291.175781 L 567 291.175781 L 567 519 L 243 519 Z M 243 291.175781 " clip-rule="nonzero"/></clipPath></defs><g clip-path="url(#7483160b91)"><path fill="#000831" d="M 254.410156 442.875 L 254.410156 305.0625 C 254.410156 297.40625 260.617188 291.199219 268.277344 291.199219 L 406.019531 291.199219 C 413.675781 291.199219 419.882812 297.40625 419.882812 305.0625 L 419.882812 442.875 C 419.882812 445.425781 417.816406 447.496094 415.261719 447.496094 L 259.03125 447.496094 C 256.480469 447.496094 254.410156 445.425781 254.410156 442.875 Z M 365.640625 490.085938 C 365.640625 505.96875 352.765625 518.84375 336.882812 518.84375 C 321 518.84375 308.121094 505.96875 308.121094 490.085938 C 308.121094 474.203125 321 461.328125 336.882812 461.328125 C 352.765625 461.328125 365.640625 474.203125 365.640625 490.085938 Z M 351.261719 490.085938 C 351.261719 482.144531 344.824219 475.707031 336.882812 475.707031 C 328.9375 475.707031 322.5 482.144531 322.5 490.085938 C 322.5 498.027344 328.9375 504.464844 336.882812 504.464844 C 344.824219 504.464844 351.261719 498.027344 351.261719 490.085938 Z M 312.113281 461.324219 L 247.667969 461.324219 C 245.117188 461.324219 243.046875 463.394531 243.046875 465.949219 L 243.046875 479.972656 C 243.046875 482.523438 245.117188 484.59375 247.667969 484.59375 L 299.324219 484.59375 C 300.671875 475.339844 305.34375 467.164062 312.113281 461.324219 Z M 516.109375 490.085938 C 516.109375 505.96875 503.234375 518.84375 487.351562 518.84375 C 471.46875 518.84375 458.59375 505.96875 458.59375 490.085938 C 458.59375 474.203125 471.46875 461.328125 487.351562 461.328125 C 503.234375 461.324219 516.109375 474.203125 516.109375 490.085938 Z M 501.730469 490.085938 C 501.730469 482.144531 495.292969 475.707031 487.351562 475.707031 C 479.410156 475.707031 472.972656 482.144531 472.972656 490.085938 C 472.972656 498.027344 479.410156 504.464844 487.351562 504.464844 C 495.292969 504.464844 501.730469 498.027344 501.730469 490.085938 Z M 566.953125 465.949219 L 566.953125 479.972656 C 566.953125 482.523438 564.882812 484.59375 562.332031 484.59375 L 524.910156 484.59375 C 522.234375 466.238281 506.4375 452.082031 487.351562 452.082031 C 468.265625 452.082031 452.46875 466.238281 449.792969 484.59375 L 374.441406 484.59375 C 373.089844 475.339844 368.421875 467.164062 361.652344 461.324219 L 433.097656 461.324219 L 433.097656 329.121094 C 433.097656 324.015625 437.234375 319.875 442.339844 319.875 L 485.976562 319.875 C 498.261719 319.875 509.746094 325.980469 516.621094 336.164062 L 544.75 377.828125 C 548.875 383.9375 551.082031 391.144531 551.082031 398.519531 L 551.082031 461.324219 L 562.332031 461.324219 C 564.882812 461.324219 566.953125 463.394531 566.953125 465.949219 Z M 520.066406 378.894531 L 497.570312 346.929688 C 496.703125 345.699219 495.292969 344.96875 493.789062 344.96875 L 458.703125 344.96875 C 456.152344 344.96875 454.082031 347.039062 454.082031 349.589844 L 454.082031 381.554688 C 454.082031 384.109375 456.148438 386.175781 458.703125 386.175781 L 516.285156 386.175781 C 520.03125 386.175781 522.222656 381.957031 520.066406 378.894531 Z M 520.066406 378.894531 " fill-opacity="1" fill-rule="nonzero"/></g></svg>