<svg xmlns="http://www.w3.org/2000/svg" xmlns:xlink="http://www.w3.org/1999/xlink" width="1080" zoomAndPan="magnify" viewBox="0 0 810 809.999993" height="1080" preserveAspectRatio="xMidYMid meet" version="1.0"><path fill="#000831" d="M 410.707031 459.910156 L 410.707031 477.125 L 425.308594 482.476562 L 425.308594 465.261719 Z M 410.707031 426.304688 L 410.707031 443.519531 L 425.308594 448.875 L 425.308594 431.660156 Z M 483.628906 406.308594 L 451.554688 427.15625 L 451.554688 513.214844 C 462.457031 514.441406 473.171875 516.101562 483.628906 518.1875 Z M 410.707031 392.726562 L 410.707031 409.917969 L 425.308594 415.273438 L 425.308594 398.078125 Z M 319.660156 387.898438 L 287.566406 408.746094 L 287.566406 528.082031 C 297.828125 524.789062 308.5625 521.941406 319.660156 519.5625 Z M 439.757812 369.796875 L 439.757812 386.988281 L 454.363281 392.347656 L 454.363281 375.152344 Z M 410.707031 359.125 L 410.707031 376.339844 L 425.308594 381.699219 L 425.308594 364.484375 Z M 439.757812 336.191406 L 439.757812 353.414062 L 454.363281 358.746094 L 454.363281 341.554688 Z M 410.707031 325.53125 L 410.707031 342.742188 L 425.308594 348.097656 L 425.308594 330.878906 Z M 439.757812 302.597656 L 439.757812 319.8125 L 454.363281 325.167969 L 454.363281 307.949219 Z M 410.707031 291.925781 L 410.707031 309.140625 L 425.308594 314.496094 L 425.308594 297.28125 Z M 391.324219 275.4375 L 359.234375 296.285156 L 359.234375 513.101562 C 369.816406 511.976562 380.53125 511.230469 391.324219 510.914062 Z M 398.039062 263.019531 L 466.8125 288.246094 L 466.8125 394.597656 L 434.960938 415.316406 L 434.960938 511.765625 C 438.226562 511.957031 441.527344 512.210938 444.796875 512.492188 L 444.796875 423.496094 L 490.367188 393.894531 L 529.171875 419.125 L 529.171875 530.273438 C 542.792969 534.996094 555.464844 540.457031 566.933594 546.597656 L 243.066406 546.597656 C 254.539062 540.5 267.210938 535.0625 280.8125 530.382812 L 280.8125 405.097656 L 326.378906 375.488281 L 352.496094 392.449219 L 352.496094 292.648438 Z M 398.039062 263.019531 " fill-opacity="1" fill-rule="evenodd"/></svg>